<svg xmlns="http://www.w3.org/2000/svg" viewBox="0 0 512 512" style="height: 400px; width: 400px;"><defs><clipPath id="icon-bg"><polygon points="469.04,379,256,502,42.96,379,42.96,133,256,10,469.04,133" fill="url(#lorc-cracked-helm-gradient-0)" stroke="#ffffff" stroke-opacity="1" stroke-width="10" transform="translate(-25.6, -25.6) scale(1.1, 1.1) rotate(0, 256, 256) skewX(0) skewY(0)"></polygon></clipPath><filter id="shadow-1" height="300%" width="300%" x="-100%" y="-100%"><feFlood flood-color="rgba(0, 0, 0, 1)" result="flood"></feFlood><feComposite in="flood" in2="SourceGraphic" operator="atop" result="composite"></feComposite><feGaussianBlur in="composite" stdDeviation="5" result="blur"></feGaussianBlur><feOffset dx="5" dy="5" result="offset"></feOffset><feComposite in="SourceGraphic" in2="offset" operator="over"></feComposite></filter><linearGradient x1="0" x2="1" y1="0" y2="1" id="lorc-cracked-helm-gradient-0"><stop offset="0%" stop-color="#ffdd00" stop-opacity="1"></stop><stop offset="100%" stop-color="#332e00" stop-opacity="1"></stop></linearGradient></defs><polygon points="469.04,379,256,502,42.96,379,42.96,133,256,10,469.04,133" fill="url(#lorc-cracked-helm-gradient-0)" stroke="#ffffff" stroke-opacity="1" stroke-width="10"></polygon><g class="" transform="translate(0,-12)" style=""><path d="M256 23.03c-20.017 6.62-39.933 15.483-59.25 26.407l80.97 62.813-22.19 22.344 79.657 60.562-149.406-46.47 30.595-29.405-81.28-25.686c-20.255 18.034-38.886 38.7-55.032 61.812 21.454 57.967 32.843 94.84 32.843 132.094 0 36.768-11.184 73.342-32.094 130C131.52 455 182.796 476.72 234 482.03c17.09-74.624 14.146-149.25 1.03-223.874-31.348 3.477-62.62 13.448-94.28 30.03v-71.31c34.855-9.803 71.26-13.905 107.438-14.157 46.513-.325 92.643 5.714 134.593 14.155v71.313c-31.484-15.732-62.28-25.594-92.75-29.5-11.7 74.133-11.706 148.24 1.376 222.375 47.406-6.535 94.89-27.41 142.094-63.72-34.54-114.55-34.35-146.13.656-261.812C392.203 90.048 318.514 45.07 256 23.03z" fill="#fff" clip-path="url(#icon-bg)" transform="translate(25.6, 25.6) scale(0.9, 0.9) rotate(0, 256, 256) skewX(0) skewY(0)" filter="url(#shadow-1)" fill-opacity="1"></path></g></svg>