<svg xmlns="http://www.w3.org/2000/svg" viewBox="0 0 512 512"><defs><style>.cls-1{fill:#320000;}.cls-2{fill:#960000;}</style></defs><g id="ACCEPT"><g id="HARM"><g id="RESOLVE_1" data-name="RESOLVE 1"><path class="cls-1" d="M344.58,242.53a45.61,45.61,0,0,1,8.95,6.95c12.22,12.21,16.07,29.9,13.26,47.35S354.74,332,340,346.82s-32.54,24-50,26.83-35.13-1-47.35-13.26a48,48,0,0,1-13-24.74,114.74,114.74,0,1,0,114.92-93.12Z"/><path class="cls-2" d="M316.24,254a50.56,50.56,0,0,0-7.08.66c-13,2.09-27.56,9.39-39.76,21.59S249.91,303,247.81,316s.75,23.89,8,31.16S274,357.3,287,355.2s27.56-9.39,39.76-21.59,19.5-26.76,21.59-39.76-.75-23.89-8-31.16c-5.45-5.45-12.94-8.42-21.83-8.68-.74,0-1.49,0-2.25,0Zm-13.81,20.35a16,16,0,0,1,11.86,4.38c7.49,7.5,5.16,22-5.22,32.37s-24.88,12.72-32.38,5.23-5.16-22,5.22-32.38c6.17-6.16,13.78-9.49,20.52-9.6Z"/><path class="cls-1" d="M494.72,266q0,3.35-.1,6.66a236.36,236.36,0,0,1-19,77.56,133,133,0,0,0-7.74-38.31,205.89,205.89,0,0,0-2.52-96.73A208,208,0,0,0,448.93,173l-7.63-17.64L428.2,140.9A207.05,207.05,0,0,0,371,90.85l-22-9.09-23.65-11a205.54,205.54,0,0,0-61.66-8.84q-6.42.06-12.89.54l-23.18,1.89-27.24,8.18A205.85,205.85,0,0,0,136.71,107l68.63,98-105-60.61a208.28,208.28,0,0,0-29.16,53.84l-7.67,19.51-3,24.36a205.83,205.83,0,0,0,.18,54.37l2.93,24.23,7.2,17.33a205.62,205.62,0,0,0,24,47.36l13.64,17.52L122,417.49A207,207,0,0,0,279.74,475,132.35,132.35,0,0,0,311,486.92a236.51,236.51,0,0,1-49.57,6h-.09C139,489.49,40.8,389.21,40.8,266c0-125.35,101.61-227,227-227S494.72,140.67,494.72,266Z"/></g></g></g></svg>