<svg xmlns="http://www.w3.org/2000/svg" xmlns:xlink="http://www.w3.org/1999/xlink" viewBox="0 0 512 512"><defs><style>.cls-1{fill:url(#radial-gradient);}</style><radialGradient id="radial-gradient" cx="256.29" cy="256" r="235.02" gradientUnits="userSpaceOnUse"><stop offset="0" stop-color="#c80000"/><stop offset="1" stop-color="#320000"/></radialGradient></defs><g id="ACCEPT"><g id="COMPLICATIONS"><g id="MINOR"><path class="cls-1" d="M299.92,491l-42-130.52-1.79,0c-2.29,0-4.82-.07-8.19-.07h-1.21c-19.76,0-56.52,1-80.69,6.86l-1.63.39L57.61,475h0L41.68,491H22.37L58,455.16l99.25-99.78-.15-1.2c-1.39-11.64-6.27-16.55-11.93-22.22l-2.76-2.77-30.51,14.28-17.13,8L21.27,385.89v-15.1l92.58-43.32,31.54-14.77.19-1.34c2.32-16.77,3.56-34.55-3.06-51l-1-2.56L21.27,226.25V212.09l126.78,33.29.95-1.65c7.35-12.71,14.95-25.84,17-44l.19-1.73-19.79-25L25.91,21H43.37L179,192.17l1.54-.35c16.82-3.84,29.5-8.88,39.88-15.85l1.32-.88L216,136.56,200.75,32.47l-.55.05L198.46,21H212.3L229.78,136.5l4.71,31.08,3.66,3.71c12,12.18,23.41,23.68,38.63,30.12l1.82.77L411,21h17L386.71,77.45,293.78,204.59l2.31,4.87c7.35,15.53,14.52,29.31,27.79,40.72l.93.8,83.63-17.48L488,216.88l3.32-.7v14l-7.57,1.58-25.64,5.37-73.29,15.31-40.71,8.51-5.55,8c-8,11.48-9.57,21.65-9.57,35.35v1.69l162.33,64.23V384.9l-44.18-17.49L443,365.76l-88.24-34.92-26.06-10.3-5,1c-10.47,2.14-25.82,11.78-36.7,20.1-5.06,3.86-10.16,8.08-15.15,12.54l-1.22,1.08,11.54,35.87,28,87L314.3,491ZM181.47,350.48l7.16-.87a471.86,471.86,0,0,1,55.07-3q3.45,0,6.29,0l3.47,0-12.15-37.78-2,.21a37,37,0,0,1-13.68-1.17l-1.41-.4Zm24.67-51.09L157.79,322l-.48,3,.77.88a52.26,52.26,0,0,1,9.16,14.54l1.43,3.47,44.55-44.77h-6.57Zm57.3-2.86a37.43,37.43,0,0,1-7.64,6.7l-1.59,1L266,341l2.85-2.4c3.38-2.85,6.49-5.35,9.79-7.88,5.9-4.5,14.83-11.05,24.3-15.92l4.91-2.52L264.6,295.19ZM158.53,266.1c2.56,10.48,3.19,21.72,2,35.38l-.38,4.32,41.24-19.29-.74-2.13a36.74,36.74,0,0,1-1.94-9.78l-.11-1.8L157.53,262ZM272.32,276l-.25,1.72c-.17,1.14-.37,2.23-.61,3.23L271,283l44.48,17.6.21-3.45c.63-10.77,2.76-19.52,6.7-27.55l2.25-4.59Zm-9.68-28.74,1.25,1.49a37.1,37.1,0,0,1,6.49,11.44l.73,2.07,37.47-7.83-2.8-3.22c-8.84-10.15-14.72-21-19.31-30.37l-1.82-3.71Zm-86.33-30.08c-3.26,11.33-8.11,20.66-12.86,29L161.84,249,201,259.27l.86-1.94a37.47,37.47,0,0,1,3.82-6.62l1.12-1.53-29.11-36.73Zm44.59-25.42A129,129,0,0,1,192,202.94l-3.67,1,28.8,36.34,1.82-.91a36.66,36.66,0,0,1,9.6-3.26l2.36-.45L224,190Zm24,44.91,1.52.46c1,.31,2.13.71,3.37,1.22l1.82.76,18.76-25.67-2.7-1.3c-8.31-4-16.12-9.44-24.57-17L238,190.45Z"/><path d="M423.07,23.49,387.69,71.87l-3,4.1-57.87,79.18-34.18,46.76-1.75,2.41,1.27,2.68,1.67,3.54c7.48,15.78,14.78,29.8,28.42,41.54l1.87,1.6,2.41-.5,55.93-11.69L409,236l79.56-16.62.3-.07v8.88l-5.59,1.16-2.8.59-22.83,4.78L384.3,250l-39.74,8.31-1.95.41-1.13,1.62-5,7.15c-8.38,12-10,22.59-10,36.78v3.39l3.16,1.25,36.59,14.48L449,356.11l5.21,2.06,34.62,13.7v9.35l-40.76-16.14-4.18-1.64-88.24-34.92-25.37-10-1.38-.55-1.45.29-4.25.87c-10.88,2.21-26.62,12.07-37.71,20.55-5.12,3.9-10.27,8.16-15.31,12.67l-2.43,2.16,1,3.1,11,34.32L305.54,472l2.24,7,3.09,9.6h-9.13L299.32,481l-1.54-4.79-26.54-82.46-10.4-32.3-1.1-3.41-3.58,0c-2.32,0-4.87-.08-8.21-.08h-1.23c-19.87,0-56.86,1-81.28,6.93l-.95.23-1.37.33-1,1L138,390.62,60.08,469,51.7,477.4,40.64,488.51H28.38l31.43-31.59,67.26-67.61L158.21,358l1.7-1.72-.29-2.4c-1.49-12.5-6.91-17.93-12.63-23.68l-1.52-1.53-2.48-2.5-3.19,1.5-28.92,13.54-17.13,8L25.83,381l-2.06,1v-9.58l1.5-.71,89.64-41.94,30.31-14.19,2.46-1.15.37-2.69c2.38-17.11,3.63-35.28-3.21-52.25l-.56-1.4-.93-2.34-2.44-.64-27.61-7.25-89.53-23.5v-9l.45.12L114,239l31.54,8.28,3.69,1,1.91-3.3c7.48-12.93,15.21-26.29,17.29-45l.08-.71.23-2-1.28-1.61-19.15-24.15-66.54-84-4.18-5.27L31.08,23.49H42.16l47.72,60.2,63.32,79.9,22.9,28.9,2,2.47,3.07-.7c17.14-3.92,30.08-9.07,40.73-16.21l2.63-1.77-.48-3.13-5.58-36.94-15.2-104.1-.55,0-1.32-8.67h8.79l.65,4.29,1,6.47,15.53,102.62,4.59,30.28.24,1.61,1.14,1.16,2.34,2.37.75.76c12.22,12.36,23.76,24,39.43,30.66l3.65,1.54,2.34-3.19,32.91-45,60.51-82.79,4.09-5.59,33-45.16h10.76M252.5,242.12l2.32-3.17,15.83-21.66,3.53-4.84-5.39-2.61a103.15,103.15,0,0,1-24-16.62L234.44,184l2.08,13.74,5.71,37.74.47,3.13,3,.91c1,.29,2,.66,3.13,1.14l3.64,1.51m-36,1.3,3.63-1.83a34.64,34.64,0,0,1,9-3l4.72-.9-.72-4.76-6-39.74L226,186.07l-6.28,3.45a126.35,126.35,0,0,1-28.31,11l-7.34,2,4.72,6,25.18,31.77,2.53,3.19m-14.09,18.81,1.73-3.88a34.35,34.35,0,0,1,3.56-6.17l2.23-3.07-2.36-3-24.91-31.43-6-7.62-2.69,9.34c-3.18,11.09-8,20.26-12.63,28.51l-3.2,5.65,6.28,1.65,33.92,8.91,4.11,1.08m67.09,2.88,4.29-.9,31.15-6.51,8.35-1.75-5.6-6.43c-8.65-9.93-14.43-20.65-18.94-29.83l-3.65-7.42L280.19,219l-18.42,25.21-2.3,3.15,2.5,3A34.54,34.54,0,0,1,268,261l1.45,4.14M157.27,309.9l7.86-3.68,35.27-16.5,4.08-1.9L203,283.56a34.19,34.19,0,0,1-1.82-9.11l-.22-3.61-3.5-.92-35.24-9.25-8.12-2.13,2,8.15c2.5,10.21,3.11,21.19,1.93,34.57l-.76,8.64m160.48-5.7.41-6.9c.62-10.43,2.67-18.88,6.45-26.6l4.5-9.18-10,2.09-45.58,9.53-3.42.71-.51,3.45c-.15,1.08-.35,2.1-.56,3l-1,4.19,4,1.58,39.27,15.54,6.42,2.55m-53,41.14,5.7-4.8c3.35-2.82,6.43-5.3,9.69-7.8,5.83-4.45,14.64-10.91,23.94-15.69l9.8-5L303.67,308l-36.5-14.44-3.29-1.31-2.32,2.68a35.07,35.07,0,0,1-7.14,6.25l-3.17,2.09,1.16,3.62,10.1,31.4,2.28,7.09m-97,3,5.29-5.33,37.66-37.85,8.48-8.53H206.09l-1,.48-47.15,22.06-2.4,1.12-.42,2.61-.09.56-.37,2.32,1.54,1.76a49.87,49.87,0,0,1,8.74,13.85l2.87,6.95m6.8,5.47,14.33-1.74a470.49,470.49,0,0,1,54.78-3c2.1,0,4.2,0,6.25,0l7,.09-2.13-6.62L244.31,310l-1.25-3.87-4,.43a31.69,31.69,0,0,1-3.48.17,34.52,34.52,0,0,1-9.26-1.26l-2.82-.79-2.06,2.08-36.61,36.8L174.6,353.83M432.92,18.49H409.77l-34.51,47.2-4.09,5.6-60.51,82.78-32.91,45c-15.06-6.36-26.14-17.76-38.57-30.33l-2.34-2.37-4.59-30.28L216.72,33.5l-1-6.46-1.29-8.55h-18.9l2.84,18.75-.11-4.41,15.2,104.1,5.59,37c-11.18,7.5-24.44,12.15-39,15.49l-22.9-28.89L93.8,80.58,44.58,18.49H20.74l53,66.83,4.18,5.26,66.54,84,19.15,24.16-.08.7c-1.93,17.38-8.88,29.64-16.65,43.07L115.3,234.2,25.49,210.61,23.08,210l-4.31-1.14v19.32l2.56.67L112,252.65l27.61,7.25.56,1.4c6.1,15.15,5.39,31.77,2.9,49.71L112.79,325.2,23.15,367.14l-4.38,2.06v20.62l9.18-4.3,67.92-31.77,17.13-8,28.92-13.54,1.52,1.53c5.85,5.86,10,10.29,11.22,20.75l-31.14,31.31-67.25,67.6-37.5,37.69v2.43h24l20.91-21h0l77.94-78.36,24.11-24.24,1-.23c23.75-5.79,59.86-6.75,80.11-6.78H248c3.35,0,5.86,0,8.13.07l10.4,32.3L293,477.73l1.54,4.78,3.54,11h19.63l-5.19-16.14-2.24-6.95-25.77-80.06-11-34.31c3.55-3.18,8.73-7.63,15-12.43,11.42-8.73,26.21-17.7,35.68-19.62l4.24-.87,25.37,10L442,368.08l4.18,1.66,47.6,18.83V368.48l-37.78-15-5.21-2.06-82.75-32.73-36.59-14.48c0-13.16,1.4-22.85,9.12-33.93l5-7.14,39.74-8.31,73.29-15.3,22.83-4.78,2.81-.59,9.56-2V213.1l-6.33,1.33-79.55,16.62-26.49,5.54-55.93,11.7c-13-11.19-20-24.74-27.16-39.9l-1.67-3.53,34.18-46.76,57.87-79.17,3-4.11,41.19-56.33ZM217.86,237.12l-25.18-31.77A132,132,0,0,0,222.1,193.9l6,39.74a39.25,39.25,0,0,0-10.25,3.48ZM250.78,236a35.39,35.39,0,0,0-3.61-1.32L241.46,197a109.45,109.45,0,0,0,25.15,17.38L250.78,236Zm-51.24,20.32-33.92-8.92c5-8.75,9.83-18.25,13.09-29.58l24.91,31.43a38.6,38.6,0,0,0-4.08,7.07Zm73.2,3a39.69,39.69,0,0,0-6.93-12.22l18.42-25.21c5.12,10.41,11.11,21.1,19.66,30.91l-31.15,6.52ZM163,301.7c1.05-11.9.92-24.05-2-36.2l35.24,9.25a39.32,39.32,0,0,0,2.08,10.45L163,301.7ZM313.17,297,273.9,281.46c.26-1.13.47-2.28.64-3.42l45.58-9.54c-4.62,9.43-6.38,18.89-6.95,28.5Zm-45.9,39.71-10.1-31.39a40.06,40.06,0,0,0,8.16-7.15l36.5,14.43a169,169,0,0,0-24.68,16.16c-3.9,3-7.1,5.61-9.88,7.95Zm-97.72,2.79A54.79,54.79,0,0,0,160,324.27l.09-.56,47.15-22.06h0L169.55,339.5Zm18.78,7.62,36.61-36.8a39.43,39.43,0,0,0,10.6,1.45,38,38,0,0,0,4-.2L250,344.11c-1.89,0-4,0-6.31,0a476.25,476.25,0,0,0-55.38,3Z"/></g></g></g></svg>