<svg id="ARMOR" xmlns="http://www.w3.org/2000/svg" xmlns:xlink="http://www.w3.org/1999/xlink" viewBox="0 0 512 512"><defs><style>.cls-1{fill:#777;}.cls-2{fill:#c8c8c8;}.cls-3{fill:url(#New_Gradient_Swatch_4);}</style><linearGradient id="New_Gradient_Swatch_4" x1="256" y1="309.3" x2="256" y2="493.27" gradientUnits="userSpaceOnUse"><stop offset="0" stop-color="#aaa"/><stop offset="1" stop-color="#444"/></linearGradient></defs><path class="cls-1" d="M18.36,227.8v18.68h86.37a98.45,98.45,0,0,0-4.43-18.68Zm379.4,0a110.51,110.51,0,0,1,9.44,18.68h86.44V227.8H397.76Z"/><path class="cls-2" d="M218.67,18.73a162.14,162.14,0,0,0-20,1.32C164,24.39,123.5,39.4,91.23,67.36L124.7,257.55l.35,10.12c42.26,15.79,100.82,24.55,152.87,24.25,27.19-.15,52.64-2.74,73-7.78s35.2-12.82,41.81-20.94l.44.35a113,113,0,0,0-6.53-17.06h.19a95.88,95.88,0,0,0-4.85-8.66c-.09-.14-.16-.3-.25-.44l-.31-.47c-21.46-34.89-63.5-55.87-124.28-29.37l-.16.06a215.37,215.37,0,0,0-34,20.19h-.81c11-15.72,23.26-28.12,35.91-37.28l1.12-11.16c-14.68-4-38.08-4.06-53.53-.09L201,161.14a130.33,130.33,0,0,1,30.34-3.84c1.5,0,3,0,4.5,0a117.66,117.66,0,0,1,25.25,3.12l3.19-32c-21.06-8.07-42.12-6.6-64.57-1.59l-4.06-18.25A170.07,170.07,0,0,1,231,104.17c1.72,0,3.44,0,5.16.07a107,107,0,0,1,30.06,5.12l3.16-31.47c-25.6-7.69-51-8.1-76.91-2.78l-3.78-18.28A188.53,188.53,0,0,1,221.52,53c1.14,0,2.29-.05,3.43-.06A167.36,167.36,0,0,1,271.23,59l.47-4.6c5-23.31-18.75-35.71-53-35.65ZM397.26,284.45c-10.84,8.13-25.26,13.7-41.87,17.82-22.37,5.54-49.07,8.18-77.38,8.34a526.46,526.46,0,0,1-65.09-3.75L225.36,329c80.16,9.44,141.5-1.19,172-21.78a113.13,113.13,0,0,0-.13-22.75ZM125.7,287.77l1,30.47,58.6,8.43,9.59-22.31c-24.55-3.82-48.21-9.37-69.19-16.59Z"/><path class="cls-3" d="M92.61,309.3C82.3,312.37,74,315.76,68,319.36l-.21.12L37.58,334.2,18.36,322v22.16L32,352.8l4.41,2.81,4.72-2.31,22-10.72c11.71,9.8,40.46,18.23,79.4,23.87l-60,28.25,26.63,21L18.36,454.23v39H145.14L188.86,447l51,46.28h27.84L159.11,394.8l35.06-23c20,1.37,41.34,2.15,63.56,2.15,20.7,0,40.66-.67,59.44-1.87l39.06,24.69-66.9,35.71,62.28,60.75H475.52L385,440.64l51.32-39.78-71.5-33.28c45.88-6,79.18-15.67,89.81-27l18,6.43,21.06,22.57V342.17l-8.94-9.56L483.17,331l-2.15-.78L439.8,315.42a141.57,141.57,0,0,0-16.66-6c5.37,3.24,8.28,6.7,8.28,10.28,0,18.59-77.73,33.66-173.62,33.66S84.14,338.29,84.14,319.7c0-3.63,3-7.13,8.47-10.4Z"/></svg>