<svg id="ARMOR" xmlns="http://www.w3.org/2000/svg" xmlns:xlink="http://www.w3.org/1999/xlink" viewBox="0 0 512 512"><defs><style>.cls-1{fill:url(#radial-gradient);}</style><radialGradient id="radial-gradient" cx="255.94" cy="256" r="236.52" gradientTransform="translate(0 -128) scale(1 1.5)" gradientUnits="userSpaceOnUse"><stop offset="0" stop-color="#aaa"/><stop offset="1" stop-color="#444"/></radialGradient></defs><path class="cls-1" d="M298.48,492.52l-25.31-78.66-.59-.11c-20.94-3.88-50.4-4.46-66.09-4.46h-1.43c-8,0-16.24.18-24.5.47-26.24.92-49.72,2.4-59.1,3.17l-.37,0L60.86,473.5h0L42,492.52H19.42v-1l37.21-37.4,52.08-52.36-.06-.49c-.56-4.34-1.73-11.42-3.2-19.41a191.93,191.93,0,0,0-7.91-29l-.38-1-70,32.74-7.75,3.63V369.83l76-35.54.08-.54c3.66-25.2,6.73-57.8-2.16-86.46l-.16-.53L19.42,227.41V210.15l5.47,1.43,71.58,18.8.41-.51c18.48-23.21,30.23-49.57,33.09-74.25l.05-.41L22.46,19.49H43.75l98.46,124.23.43,0c2.31.19,4.63.28,6.9.28,22.64,0,43.26-9.1,61.27-27l.36-.36L198.92,32.69l-.55.05-2-13.25h16.88l14.18,93.75.32.25c26.17,20.14,63.49,22.72,93.09,22.72h3.79l85.31-116.7H430.6l-43,58.85-44,60.18.58,1.91c11.09,35.88,24.19,69.7,62.29,89.35l-23.77,4.82C360.91,218.14,344.33,192.75,332,157l-.62-1.8-1.71,2.33-34.53,47.24,1.92,4.07c7.28,15.36,14.37,29,27.42,40.21l.37.33L407.78,232l79.55-16.62,5.13-1.08v17l-8.77,1.83-25.64,5.37L407.22,249.2l-.2.47c-11.52,25.84-23.44,52.56-20.28,77.1l.07.59,68.5,27.1,37.15,14.7v17.95l-46.23-18.3-4.18-1.65-64.82-25.65-.37.15c-36.34,14.29-60.64,40.09-86.42,69.85l-.37.43L316,492.52Zm-90.29-100h3.27c14.95.09,36.52.75,54.41,3.37l1.59.23-11-34.17h-.72c-2.28,0-4.8-.07-8.17-.07h-1.19c-19.7,0-56.33,1-80.35,6.81l-1.22.29-25.67,25.81.81.08-.38.38,2.59-.13c12.36-.92,24.73-1.6,37.81-2.06,9-.31,17.13-.49,24.95-.53ZM323.63,323c-10.23,2.08-25.84,12-36.09,19.81-5,3.84-10.1,8-15.07,12.47l-.48.44,11.83,36.8,1.92-1.43.07-.08c18.38-20.75,39.36-42,68.09-57l1.94-1L328.16,322.1ZM111.82,345l.38.89c3.23,7.57,6.1,18.33,8.79,32.91.2,1.1.48,2.41.76,3.72.24,1.11.47,2.22.67,3.21l.36,1.85,32.58-32.76-.06-.48c-1.33-11.13-6-15.86-11.5-21.34l-2-2Zm73.41,3.45,2.87-.35a475.4,475.4,0,0,1,55.27-3c2.29,0,4.4,0,6.29,0h1.39L239.9,310.5l-.81.08a36.68,36.68,0,0,1-3.9.2,38.32,38.32,0,0,1-10.33-1.42l-.57-.15Zm21.19-47.72L158.8,323l-.25,1.54.31.35a53.62,53.62,0,0,1,9.41,15l.58,1.39,40.41-40.62h-2.62Zm57.8-3.24a38.45,38.45,0,0,1-8,7l-.64.42,10.79,33.54,1.14-1c3.4-2.86,6.53-5.37,9.85-7.92,5.94-4.54,14.95-11.14,24.53-16.06l2-1L264.69,297ZM110.68,252.78l0,.11c4.76,20.53,5.45,44.61,2,71.58l-.23,1.8,31.15-14.58.07-.53c2.3-16.57,3.53-34.11-3-50.23l-.75-1.86-29.35-7.71Zm274.12,1.11-40.16,8.4-5.21,7.46c-7.78,11.17-9.3,21.11-9.3,34.5v.68l37.22,14.73,2.16.87,0-1.51c-.33-23.54,9.26-47.66,16.51-63.75l.77-1.71ZM159.64,265.75c2.6,10.64,3.24,22,2,35.86l-.15,1.73,37.66-17.62-.3-.85a38.48,38.48,0,0,1-2-10.17l0-.73-37.56-9.86ZM273.3,277.2l-.1.69c-.17,1.18-.38,2.31-.63,3.35l-.19.84,41.35,16.37.09-1.38c.65-11,2.82-19.91,6.85-28.12l.9-1.84Zm-9.11-30,.5.6a38.41,38.41,0,0,1,6.76,11.9l.29.83,33.67-7-1.12-1.29c-9-10.28-14.89-21.28-19.51-30.69l-.73-1.49ZM177.4,217.54c-3.3,11.49-8.2,20.91-13,29.37l-.64,1.13,36,9.46.34-.78a38.5,38.5,0,0,1,4-6.88l.44-.62-26.59-33.55Zm-34.8-43.85c-4.82,19.64-15.48,42-28.53,59.9l-.85,1.16,1.39.39,32.36,8.5.38-.66c7.61-13.15,14.8-25.57,16.78-43.45l.13-1.12-21.18-26.7ZM221.27,193a130.18,130.18,0,0,1-29.2,11.36l-1.47.4,26.63,33.6L218,238a38.28,38.28,0,0,1,10-3.39l.94-.18-6.37-42.11Zm24.65,42.43.61.19a36.88,36.88,0,0,1,3.52,1.27l.72.3,17-23.26-1.07-.52c-8.44-4.09-16.36-9.57-24.92-17.24l-2.08-1.85Zm-15-99.17,4.64,30.59,3.31,3.35C250.8,182.31,262.07,193.71,277,200l.73.31,34-46.48-1.9-.05c-31.24-.9-56.27-7-76.53-18.55l-.17-.1-2.42-.32Zm-18.3.58c-16.25,13.07-36.48,21.52-55.49,23.18l-1.85.16,24,30.29.61-.14c16.64-3.8,29.16-8.77,39.39-15.63l.52-.35L214,135.78Z"/><path d="M428.63,20.49,389.76,73.65l-3,4.1-43.69,59.78-.59.81.3,1,.44,1.43c10.9,35.3,23.76,68.63,60.3,88.62l-20.58,4.18c-21.45-16.35-37.79-41.5-50-76.86l-1.24-3.61-2.26,3.07-.59.8-34.18,46.76-.7,1,.51,1.07,1.67,3.53c7.33,15.47,14.47,29.2,27.66,40.55l.75.65,1-.2,55.93-11.69L408,233l79.55-16.63,3.92-.82v15l-8,1.66-2.81.59-22.83,4.78-50.33,10.51-1,.21-.42.93c-11.57,26-23.54,52.82-20.36,77.64l.16,1.17,1.09.44,62.74,24.82,5.21,2.06,36.52,14.45v15.79l-44.87-17.75-4.18-1.65L378,340.73l-.73-.29-.73.29c-36.56,14.37-60.94,40.26-86.81,70.13l-.74.85.35,1.07L308.05,471l2.23,6.95,4.35,13.53H299.21l-3.1-9.61-1.54-4.8-20.27-63-.36-1.14-1.18-.22c-21-3.9-50.54-4.48-66.27-4.48h-1.44c-8,0-16.24.18-24.52.47-26.27.92-49.77,2.4-59.15,3.17l-.74.06-.52.53L61.85,471.09l-3.38,3.41h0l-16.93,17H20.81l36.53-36.71,51.74-52,.69-.7-.13-1c-.57-4.36-1.73-11.45-3.2-19.46a194.32,194.32,0,0,0-8-29.14l-.77-2-1.95.92-1.09.51L26.75,383.72l-6.33,3V370.47L23.65,369l71.68-33.54,1-.46.16-1.06c3.68-25.31,6.76-58.06-2.19-86.9l-.33-1.07-1.07-.28L21.49,226.91l-1.07-.28V211.45l1.8.47,2.41.63,71,18.63,1.26.33.81-1c18.6-23.35,30.42-49.9,33.31-74.75l.09-.83-.51-.64L79.1,89.34l-4.18-5.26L24.53,20.49H43.26L91.88,81.83,141.15,144l.54.68.87.07c2.34.19,4.69.28,7,.28,22.91,0,43.77-9.2,62-27.34l.71-.71-.14-1L199.91,32.55l-.55.05-1.84-12.11h14.86l1,6.85,1,6.47,12,79.19.12.79.64.49c26.4,20.32,63.95,22.93,93.7,22.93h4.3l.59-.81,46.71-63.9,4.09-5.6,33.91-46.39h18.2M278.08,201.57l.93-1.28L311.38,156l2.25-3.07-3.8-.11c-31.07-.89-55.95-6.92-76.06-18.42l-.34-.19-.39,0-.9-.13-2.68-.35.45,2.67v.09l4.59,30.28.1.64.46.46,2.34,2.37.75.76c12,12.14,23.34,23.61,38.46,30l1.46.62m-99.2-9.95,1.23-.28c16.77-3.83,29.39-8.85,39.72-15.78l1.06-.71-.19-1.25-5.48-36.25-.52-3.44L212,136.09c-16.11,12.95-36.14,21.32-55,23l-3.7.32,2.31,2.91,22.46,28.34.78,1M147.46,244.8l.76-1.32c7.32-12.66,14.9-25.75,16.91-43.84l.08-.71.09-.82-.51-.65-19.15-24.15-.5-.63-2.54-3.19-1,4C136.84,193,126.24,215.24,113.26,233l-1.69,2.31,2.76.79.11,0L146,244.41l1.48.39M217,239.64l1.46-.72a36.87,36.87,0,0,1,9.72-3.31l1.89-.36-.28-1.9-6-39.74-.43-2.84-2.52,1.39a130,130,0,0,1-29,11.27l-2.94.79,1.89,2.38,25.18,31.77,1,1.27m34.16-1.19.93-1.27,15.83-21.66,1.42-1.94-2.16-1c-8.35-4-16.19-9.48-24.69-17.08l-4.14-3.71.83,5.5L244.84,235l.19,1.25,1.21.36c1,.32,2.17.72,3.42,1.24l1.45.61m-50.79,20.23.69-1.55a37.55,37.55,0,0,1,3.88-6.71l.89-1.23-.94-1.18-24.91-31.43-2.42-3.05-1.07,3.74c-3.28,11.38-8.14,20.74-12.91,29.15l-1.28,2.26,2.51.66,33.92,8.91,1.64.43m70.76,2.95,1.72-.35L304,254.77l3.34-.7-2.24-2.58c-8.88-10.19-14.78-21.12-19.38-30.48l-1.46-3-1.95,2.67-18.42,25.21-.92,1.26,1,1.2A37.33,37.33,0,0,1,270.5,260l.58,1.65M111.3,328l3.29-1.54,29-13.58,1-.46.15-1.08c2.32-16.69,3.55-34.4-3-50.73l-.56-1.4-.38-.93-1-.26-27.61-7.25-2.51-.65v2.83l0,.22c4.73,20.41,5.41,44.37,2,71.23l-.45,3.6M370.53,322l0-3c-.33-23.35,9.22-47.33,16.42-63.33l1.54-3.41-3.69.61-.12,0h-.08l-39.74,8.31-.78.16-.45.65-5,7.14c-7.93,11.38-9.48,21.48-9.48,35.07v1.36l1.26.5L367,320.58l.77.31,2.79,1.13M160.36,305l3.15-1.47L198.78,287l1.63-.76-.59-1.71a36.86,36.86,0,0,1-2-9.9l-.09-1.45-1.4-.37-35.24-9.25-3.25-.85.8,3.26c2.57,10.54,3.21,21.83,2,35.54l-.31,3.46m154.29-5.1.17-2.75c.64-10.84,2.78-19.66,6.74-27.74l1.81-3.68-4,.84-45.58,9.53-1.37.29-.2,1.38c-.17,1.15-.38,2.25-.61,3.27l-.39,1.67,1.6.64,39.27,15.54,2.57,1m-48.72,40.29,2.28-1.92c3.39-2.86,6.51-5.37,9.8-7.89,5.92-4.52,14.88-11.09,24.38-16l3.93-2-4.11-1.62-36.5-14.44-1.31-.52-.93,1.07a37.91,37.91,0,0,1-7.75,6.79l-1.27.83.47,1.45L265,337.33l.92,2.84m-97.43,2.88,2.12-2.13,37.66-37.85,3.38-3.41H206.4l-.4.19-47.15,22.06-1,.44-.17,1-.09.56-.15.93.62.7a52.81,52.81,0,0,1,9.25,14.68l1.15,2.78m14,6.76,5.73-.7a475.18,475.18,0,0,1,55.14-3c2.11,0,4.22,0,6.28,0l2.78,0-.85-2.65L241.1,311l-.5-1.54-1.61.17a35,35,0,0,1-3.8.19,37.56,37.56,0,0,1-10.06-1.38l-1.13-.31-.83.83-36.61,36.8-4.07,4.09M283.3,394.18l2.25-1.68.71-.53.16-.12.14-.16c18.32-20.67,39.21-41.86,67.8-56.75l3.89-2-4.08-1.61-25.37-10-.55-.22-.58.12-4.24.86c-10.39,2.11-25.66,11.72-36.49,20-5.06,3.85-10.15,8.06-15.13,12.52l-1,.86.4,1.24,11,34.32.17.53.86,2.67m-161.15-4.53,2.67-2.68,30.91-31.08.68-.69-.12-1c-1.37-11.47-6.19-16.32-11.78-21.92L143,330.79l-1-1-1.28.6-28.45,13.32-1.75.82.76,1.77c3.2,7.5,6,18.19,8.72,32.7.21,1.12.49,2.46.77,3.75.24,1.09.48,2.21.67,3.19l.71,3.71m15.59,6-.86.86,5.36-.4c12.36-.93,24.72-1.6,37.77-2.06,8.94-.31,17.09-.49,24.92-.53h6.53c14.91.09,36.43.74,54.27,3.36l3.18.46-1-3.06-10.29-32-.44-1.36-1.43,0c-2.31,0-4.84-.07-8.16-.07h-1.22c-19.75,0-56.46,1-80.58,6.83l-1,.23-.55.14-.4.4-24,24.11-3,3,.78.07M432.57,18.49H409.42L374.91,65.7l-4.09,5.6-46.71,63.9h-3.28c-33.68,0-67.94-3.62-92.48-22.51l-12-79.19-1-6.47-1.29-8.55H195.2L198,37.24l-.11-4.4,12.18,83.44C194.54,131.78,174.56,143,149.54,143q-3.34,0-6.82-.27L93.45,80.59,44.23,18.49H20.39l53,66.83,4.18,5.27L129,155.51c-3.16,27.24-16.63,53.33-32.88,73.74l-71-18.63L22.73,210l-4.31-1.13v19.32l2.56.67,71.38,18.74c8.29,26.73,6.3,57.28,2.12,86L22.8,367.15l-4.38,2.05v20.63l9.18-4.3,67.92-31.78,1.09-.51A190.52,190.52,0,0,1,104.47,382c1.33,7.25,2.58,14.68,3.19,19.36l-51.74,52-37.5,37.69v2.43H42.37l20.91-21h0l58.27-58.57c10.1-.83,33.7-2.28,59.06-3.17,7.9-.28,16.15-.45,24.46-.47h1.43c23.09,0,48.33,1.19,65.91,4.45l20.27,63,1.54,4.79,3.54,11h19.63l-5.19-16.14L310,470.43,291.2,412.17c23.43-27.05,48.62-54.87,86-69.58l64.45,25.5,4.18,1.65,47.6,18.84v-20.1l-37.78-15-5.21-2.06-62.74-24.82c-3.11-24.21,8.64-50.64,20.2-76.57l50.33-10.51,22.83-4.78,2.81-.59,9.56-2v-19.1l-6.33,1.33-79.55,16.62-26.49,5.54-55.93,11.69c-13-11.18-20-24.73-27.16-39.89l-1.67-3.53,34.18-46.76.58-.79c9.76,28.37,24.84,58.48,51.36,78.35l24.6-5,1.83-.54L407.07,229c-37.27-19.15-50.45-51.64-61.94-88.83l-.44-1.43,43.69-59.78,3-4.1,41.19-56.34ZM277.4,199.11c-15.06-6.37-26.14-17.76-38.57-30.33l-2.34-2.37-4.59-30.28,0-.12.9.12c23.18,13.26,50.47,17.92,77,18.68l-32.37,44.3Zm-97.73-9.72-22.46-28.34c21-1.84,41.37-11.61,56-23.4l5.48,36.25c-11.18,7.5-24.44,12.15-39.05,15.49Zm-33.18,53.09L115,234.2l-.07,0c12.14-16.62,23.5-39.08,28.69-60.25l.5.63,19.15,24.15-.08.71c-1.93,17.37-8.88,29.63-16.65,43.06Zm71-5.35-25.18-31.77a132,132,0,0,0,29.42-11.45l6,39.74a39.25,39.25,0,0,0-10.25,3.48ZM250.43,236a37.88,37.88,0,0,0-3.61-1.31L241.11,197a109.17,109.17,0,0,0,25.15,17.39L250.43,236Zm-51.24,20.32-33.92-8.91c5-8.75,9.83-18.25,13.09-29.59l24.91,31.43a39.28,39.28,0,0,0-4.08,7.07Zm73.2,3a39.53,39.53,0,0,0-6.93-12.21l18.42-25.21C289,232.31,295,243,303.54,252.81l-31.15,6.51ZM113.74,324.6c2.87-22.76,3.42-48.28-2.06-71.93h0l27.61,7.25.56,1.4c6.1,15.14,5.39,31.77,2.9,49.71l-29,13.58ZM368.49,319l-.77-.31-36.59-14.48c0-13.15,1.4-22.84,9.12-33.92l5-7.14L385,254.88l.12,0c-8.65,19.21-16.91,42.09-16.6,64.18ZM162.66,301.7c1.05-11.9.92-24-2-36.19l35.24,9.25a39.17,39.17,0,0,0,2.08,10.44l-35.27,16.5ZM312.82,297l-39.27-15.54c.26-1.13.47-2.28.64-3.43l45.58-9.53c-4.62,9.43-6.38,18.89-6.95,28.5Zm-45.9,39.71-10.1-31.4a39.76,39.76,0,0,0,8.16-7.15l36.5,14.44a169,169,0,0,0-24.68,16.16c-3.9,3-7.1,5.61-9.88,8Zm-97.72,2.79a54.79,54.79,0,0,0-9.59-15.23l.09-.56,47.15-22.06h0L169.2,339.51ZM188,347.13l36.61-36.8a39.43,39.43,0,0,0,10.6,1.45,38,38,0,0,0,4-.2l10.47,32.54c-1.89,0-4,0-6.31,0A474.32,474.32,0,0,0,188,347.13Zm96.37,43.77-.17-.53-11-34.32c3.55-3.17,8.73-7.63,15-12.42,11.42-8.73,26.21-17.7,35.68-19.63l4.24-.86,25.37,10c-28.55,14.87-49.86,36.3-68.38,57.2l-.71.53Zm-161-5.34c-.42-2.17-1.06-4.9-1.43-6.92-1.84-10-4.7-23.39-8.85-33.12l28.45-13.32,1.52,1.53c5.85,5.87,10,10.3,11.22,20.75L123.4,385.56Zm18.71,8.52-.77-.06,24-24.11,1-.23c23.75-5.79,59.86-6.75,80.11-6.78h1.22c3.35,0,5.86,0,8.13.07l10.29,32c-16.25-2.38-36.44-3.27-54.55-3.38h-6.55c-8.5.05-16.9.25-25,.53-15.57.55-28,1.33-37.85,2.07l.07-.07Z"/></svg>