<svg xmlns="http://www.w3.org/2000/svg" viewBox="0 0 512 512"><defs><style>.cls-1{fill:#ffd82c;}</style></defs><g id="RESIST"><g id="INSIGHT_4" data-name="INSIGHT 4"><path id="Pupil" class="cls-1" d="M326.5,67.65a108.84,108.84,0,0,0-75.28-30.08h0A109.22,109.22,0,1,0,326.5,67.65Zm-76,114.06a39.17,39.17,0,1,1,39.15-39.19A39.2,39.2,0,0,1,250.51,181.71Zm76-114.06a108.84,108.84,0,0,0-75.28-30.08h0A109.22,109.22,0,1,0,326.5,67.65Zm-76,114.06a39.17,39.17,0,1,1,39.15-39.19A39.2,39.2,0,0,1,250.51,181.71Zm76-114.06a108.84,108.84,0,0,0-75.28-30.08h0A109.22,109.22,0,1,0,326.5,67.65Zm-76,114.06a39.17,39.17,0,1,1,39.15-39.19A39.2,39.2,0,0,1,250.51,181.71Z"/><path class="cls-1" d="M244,27.44c-46.86,0-93.53,12.25-134.7,39.08-36,22.91-64.47,54.55-84.66,92.29,4.06,14.72,14.18,28.71,25.72,41.23,8.08,8.77,16.87,16.81,24.75,23.86a239.65,239.65,0,0,0,59.47,40.85A239,239,0,0,0,160,275.27a256.33,256.33,0,0,0,88.95,14q7.22-.1,14.42-.62a291.28,291.28,0,0,0,90-21.07A299.94,299.94,0,0,0,430.12,222a286.46,286.46,0,0,0,57.21-63.16C434.75,77.71,339,27.44,244,27.44ZM245.4,245.9h-.22c-48.05-.19-95.61-14-140.82-42.29a353,353,0,0,1-54.67-42.55l.46-.39-.46-.39c83.22-148.2,316.59-148.42,408.47-1.84C390.31,215.94,317.31,246.14,245.4,245.9Zm17.93,42.79c7.16,3,14.11,11.57,20,28.08,3.54,9.85,6.71,22.54,9.33,38.58v74.84C287.27,440.69,281,449.64,281,462.5s10,22.19,21,22.19c10.74,0,22.18-9.73,22.18-23.34,0-14.45-7.09-23.42-12.81-34.57V342.22h-.22a223.26,223.26,0,0,1,7.48-25.45c9.57-26.37,22.57-44.47,34.73-48.86v-.29A291.28,291.28,0,0,1,263.33,288.69Zm-38.82,28.08c6.37-12.19,15.11-23.17,24.4-27.46a256.33,256.33,0,0,1-88.95-14,109.62,109.62,0,0,1,38.91,41.5q1.84,3.45,3.47,7.08v80.59c-6.36,10.47-13.62,16.95-13.62,28.87,0,17.89,11.76,24.5,23.93,24.5,11.91,0,21.6-5.66,21.6-24.5,0-9.3-7.44-16.63-13.22-31.06V324.1C222.09,321.64,223.26,319.18,224.51,316.77Zm-89.9-52A239.65,239.65,0,0,1,75.14,223.9c-7.88-7.05-16.67-15.09-24.75-23.86,11.79,18.34,22,39.48,27.42,60.27v50c-1.08,2.29-2.28,4.43-3.51,6.49-4.18,7.06-8.55,13.25-8.55,21.92,0,9.09,11.63,18.09,21,18.09,9.2,0,21.6-9.67,21.59-19.25,0-8.63-4.22-14.43-8.25-20.76a67,67,0,0,1-3.62-6.27V278.22C103,265.1,117.78,261.12,134.61,264.75Zm267-60.78a401.64,401.64,0,0,1-48.21,22.27v41.67c10.32-3.73,20,2.4,26.54,21.72v59.78c-4.46,8.95-9.56,17.37-9.56,29.59,0,13.94,9.56,23.94,18.69,23.94,9.34,0,18.09-9.54,18.09-22.78,0-10.83-4.34-19-8.53-27.56V282.69c7.59-26.52,19-45.48,31.53-60.73a225.7,225.7,0,0,1,16.65-18Z"/></g></g></svg>