<svg xmlns="http://www.w3.org/2000/svg" viewBox="0 0 512 512"><defs><style>.cls-1{fill:#a58600;}</style></defs><g id="RESIST"><path class="cls-1" d="M399,355.08c-15-32.31-18.67-65.87-6.23-94.7-47.19,58.41-76.14,4.41-4.09-70.72-101.67,62.7-147.78,31.47-14-88.26-103,54.66-182.49,69.22-130.93,15.19-37.19,10.63-58.21,5.21-76-2.43A643.42,643.42,0,0,0,55.28,58.49a789.14,789.14,0,0,0,47,77.56c7,18.27,3,38.71-31.46,63.44,124.85-33.45,88.52,47-9.36,104.92,166.21-61.68,207.52-47.41,100.64,78,84-61.07,150.14-44.57,122.89,31.29,31.63-24.51,57.9-29.74,78-20.87q43.39,30.7,90.32,59C436.25,418.27,418.25,386,399,355.08ZM352.11,362c-16.61-9.9-26.17.25-36.79,14,7.32-15.11,11.12-30.72,2.69-42.28l-3.7-3.19L277,301.11l-39.68,22,14.29-21.06c6.08-10.31,2.85-22.58-4.7-34.2q-13.6-13.56-26.78-27.46c-1.38-1-2.75-2-4.11-2.91l-55.23,15.68,18.09-21.41c8.78-14.64,0-34.57-8.18-46.3q-7-8.15-13.82-16.42l-36.3,6.06c15.32-6.06,26.08-18.6,14-33.28l-1.89-2.13c.69.72,1.31,1.42,1.89,2.13l1.71,1.94q-20.43-25.65-39.84-52.09,35.76,26.88,69.71,55.75l30.44-7.93-18.38,18.27q19.44,16.88,38.31,34.41l59.73-25.32L260.68,191l.25-.2c-17.91,22.9,15.6,71.52,38.24,65.19l26.52-14.71-20.6,30.37,30.65,43.82.66.74c11.34,10.39,26,1.42,35.79-12.07L355.9,339q26.72,31.78,52.3,65.24Q379.31,383.76,352.11,362Z"/></g></svg>