<svg xmlns="http://www.w3.org/2000/svg" xmlns:xlink="http://www.w3.org/1999/xlink" viewBox="0 0 512 512"><defs><style>.cls-1{fill:url(#radial-gradient);}</style><radialGradient id="radial-gradient" cx="256.97" cy="254.86" r="237.52" gradientTransform="translate(0 -509.71) scale(1 3)" gradientUnits="userSpaceOnUse"><stop offset="0" stop-color="#d7af00"/><stop offset="1" stop-color="#675300"/></radialGradient></defs><g id="RESIST"><path class="cls-1" d="M21.42,17.34,78.56,89.45c-2.73,48.59-23.75,85.79-52.39,120l-6.72-1.76V227l2.56.67C37.36,272.78,31.1,318.54,23.83,366l-4.38,2.05v20.63l9.18-4.29c6.52,10.7,13.66,27,19.06,41.33,4.29,11.33,7.48,21,9.26,26.53l-37.5,37.69v2.43h24L72,463.67c9.27-.36,41.77-1.47,82.7-.75,46.74.83,102.61,4.3,139,13.67l5.08,15.78h19.63L311,469.28c35.94-41.51,71.91-80.52,131.73-102.34l51.78,20.49v-20.1l-43-17c-6.37-39.21,12.76-76.67,30.62-116.68l12.37-2.59V212l-6.33,1.32-5.45-2.8c-56.09-28.83-76.33-78-93.3-132.7L433.6,17.34H410.45l-38.6,52.81c-58.28,1.26-112.48-2.46-154.45-37.79l-2.27-15h-18.9l2.83,18.75c-27.13,29-57.56,48-104.58,43.36L45.26,17.34Zm199.92,41c40.6,26.3,88.49,30.89,136.75,30.63L325,134.32c-36.59.39-69.86-3-95.85-24.64l-7.76-51.33Zm-18.84.44,8.29,54.77c-17.81,18.62-37.29,30.18-68,26.86L109.72,98.68c38.59-.74,68.36-17.15,92.78-39.89ZM375.83,96.38c15.53,47,37.05,92.69,84.55,122.72l-51.77,10.82-.82-.42c-37.27-19.14-50.44-51.64-61.93-88.83l-.72-2.31,30.68-42ZM95.09,110.3l34.39,43.39c-2.52,29.59-15.41,52.66-33.14,74.21L45.93,214.67c23.72-29.78,42.64-63.39,49.16-104.37ZM232.93,135c23.94,13.69,51.05,17.4,78.41,17.94l-32.91,45c-15.06-6.36-26.14-17.75-38.57-30.32l-2.35-2.37L232.93,135Zm-18.77.81,5.59,36.95c-11.18,7.5-24.44,12.15-39.05,15.49l-22.9-28.89c22.71-1.4,41.09-10.68,56.36-23.55ZM331.54,157c9.74,29.15,23.14,58,50.58,78.49l-55.93,11.69c-13-11.18-20-24.74-27.16-39.89l-1.67-3.53ZM145.1,173.41l19.15,24.16-.08.71c-1.93,17.36-8.88,29.63-16.65,43.06L116,233.06c13.21-17.36,23.94-36.83,29.12-59.65Zm77.68,19.35,6,39.75A38.88,38.88,0,0,0,218.54,236l-25.18-31.77a132.49,132.49,0,0,0,29.42-11.45Zm19.36,3.05a109.17,109.17,0,0,0,25.15,17.39l-15.83,21.66c-1.18-.49-2.38-.94-3.61-1.32l-5.71-37.73Zm-62.75,20.86L204.3,248.1a39.37,39.37,0,0,0-4.08,7.07l-33.92-8.9c5-8.76,9.83-18.25,13.09-29.6Zm105.52,4.08c5.12,10.42,11.11,21.1,19.66,30.92l-31.15,6.5A39.64,39.64,0,0,0,266.49,246l18.42-25.21ZM43.14,233.26,92,246.09c9.23,28.21,5.8,57.08,1.2,87.45l-49.07,23c6-40.15,10.29-81.42-1-123.24Zm416.14,5.16c-14.93,32.63-30.11,66.73-27.43,104.13l-43.74-17.31c-3.6-25,8.78-49.44,20.72-76.28l50.45-10.54Zm-346.57,13.1,27.61,7.25.56,1.4c6.1,15.13,5.39,31.77,2.9,49.71l-30.32,14.18c3.22-23.51,5-47.81-.75-72.54ZM386,253.74c-9,19.81-17.8,40.8-17.25,63.84l-36.59-14.47c0-13.15,1.4-22.84,9.12-33.92l5-7.15,39.74-8.3ZM161.64,264.36l35.24,9.26A39.33,39.33,0,0,0,199,284.06l-35.27,16.5c1.05-11.9.92-24.05-2.05-36.2Zm159.16,3c-4.62,9.44-6.38,18.89-6.95,28.5l-39.27-15.54c.26-1.12.47-2.27.64-3.43l45.58-9.53ZM266,297l36.5,14.44a169,169,0,0,0-24.68,16.16c-3.9,3-7.1,5.6-9.88,7.94l-10.11-31.4A39.76,39.76,0,0,0,266,297Zm-58.12,3.48-37.66,37.86a54.85,54.85,0,0,0-9.59-15.24l.09-.55,47.15-22.07Zm17.73,8.67a39.43,39.43,0,0,0,10.6,1.46c1.35,0,2.69-.07,4-.2L250.7,343c-13.32-.16-37.62.07-61.7,3l36.61-36.81ZM329.1,322l25.36,10c-29.4,14.92-50.37,35.89-69.25,57.2l-11-34.32c3.55-3.18,8.73-7.63,15-12.43,11.42-8.73,26.21-17.7,35.68-19.63l4.24-.86Zm-186.5,9.07,1.52,1.52c5.85,5.88,10,10.31,11.22,20.75L124.2,384.64c-.35-2.27-.74-4.63-1.2-7.14-2-10.95-4.45-22.94-9.32-32.9l28.92-13.54Zm235.93,10.49,39.22,15.52c-49.42,22.5-82.92,56.68-113.45,91.47l-12.44-38.65c24.11-27.84,47.68-53.61,86.67-68.34Zm-282,11.06c3,6.84,6.22,18.17,8.07,28.26,1.58,8.61,2.5,16.08,3,20.45L71.72,437.4c-1.68-5-3.78-11-6.55-18.29-5.37-14.22-12-30-19.61-42.64l51-23.86Zm150.86,9.15c4,0,6.81,0,9.35.06l10.39,32.3c-26.25-4.15-58.63-4.19-87-3.18-15.58.55-28,1.32-37.86,2.06l24.11-24.24,1-.23C191,362.74,227.16,361.79,247.41,361.76Zm-42.19,47.39c24.92-.06,50.36,1.26,68.41,5.1L287.06,456c-38.71-8.23-89-11-132.09-11.74-27.22-.48-49.23-.19-63.87.17l30.8-31c7.77-.76,30.71-2.84,58.86-3.84,7.9-.28,16.15-.45,24.46-.47Z"/></g></svg>