<svg xmlns="http://www.w3.org/2000/svg" viewBox="0 0 512 512"><defs><style>.cls-1{fill:#00f4f4;}.cls-2{fill:#007676;}</style></defs><g id="SPECIAL"><g id="INSIGHT_3" data-name="INSIGHT 3"><path id="Pupil" class="cls-1" d="M314.46,80a91.84,91.84,0,0,0-63.52-25.39h0A92.2,92.2,0,1,0,314.46,80Zm-64.12,96.24a33.05,33.05,0,1,1,33-33.07A33.08,33.08,0,0,1,250.34,176.25ZM314.46,80a91.84,91.84,0,0,0-63.52-25.39h0A92.2,92.2,0,1,0,314.46,80Zm-64.12,96.24a33.05,33.05,0,1,1,33-33.07A33.08,33.08,0,0,1,250.34,176.25ZM314.46,80a91.84,91.84,0,0,0-63.52-25.39h0A92.2,92.2,0,1,0,314.46,80Zm-64.12,96.24a33.05,33.05,0,1,1,33-33.07A33.08,33.08,0,0,1,250.34,176.25Z"/><path class="cls-2" d="M398.31,282.69V352.6c4.19,8.54,8.53,16.73,8.53,27.56,0,13.24-8.75,22.78-18.09,22.78-9.13,0-18.69-10-18.69-23.94,0-12.22,5.1-20.64,9.56-29.59V289.63c-6.51-19.32-16.22-25.45-26.54-21.72V226.24A401.64,401.64,0,0,0,401.29,204h45.2C427.86,222.23,409.18,244.72,398.31,282.69Zm-264-17.94A239.65,239.65,0,0,1,74.86,223.9C67,216.85,58.19,208.81,50.11,200c11.79,18.34,22,39.48,27.42,60.27v50c-4.76,10.14-12.06,17.21-12.06,28.41,0,9.09,11.63,18.09,21,18.09,9.2,0,21.6-9.67,21.59-19.25,0-11.36-7.31-17.81-11.87-27V278.22C102.75,265.1,117.5,261.12,134.33,264.75Zm114.3,24.56a256.33,256.33,0,0,1-88.95-14,109.79,109.79,0,0,1,42.38,48.58v80.59c-6.36,10.47-13.62,16.95-13.62,28.87,0,17.89,11.76,24.5,23.93,24.5,11.91,0,21.6-5.66,21.6-24.5,0-9.3-7.44-16.63-13.22-31.06V324.1C227.16,309.18,237.5,294.45,248.63,289.31ZM487.05,158.8c-33,49.83-80.77,87.12-134,108.82a291.28,291.28,0,0,1-90,21.07q-7.2.51-14.42.62a256.33,256.33,0,0,1-88.95-14,239,239,0,0,1-25.35-10.52A239.65,239.65,0,0,1,74.86,223.9C67,216.85,58.19,208.81,50.11,200c-11.54-12.52-21.66-26.51-25.72-41.23,20.19-37.74,48.7-69.38,84.66-92.29C233.63-14.68,408.52,37.68,487.05,158.8Zm-29.17-.36C366,11.86,132.63,12.08,49.41,160.28l.46.39-.46.39a353,353,0,0,0,54.67,42.55c45.21,28.32,92.77,42.1,140.82,42.29h.22C317,246.14,390,215.94,457.88,158.44Z"/></g></g></svg>