<svg xmlns="http://www.w3.org/2000/svg" viewBox="0 0 512 512"><defs><style>.cls-1{fill:#34d5d5;}.cls-2{fill:#00f4f4;}</style></defs><g id="SPECIAL"><g id="RESOLVE_3" data-name="RESOLVE 3"><path class="cls-1" d="M261.31,19.1a237.51,237.51,0,0,0-59.11,8.12C75.84,61.08.86,191,34.71,317.31,67.8,440.8,192.61,515.21,316.2,486.92A132.35,132.35,0,0,1,285,475a207,207,0,0,1-157.72-57.52l-13.81-16.37-13.31-15.7a206,206,0,0,1-24.06-47.36l83.63-17.33L65.93,296.5a205.41,205.41,0,0,1-.18-54.37l164.66,47.21-154-91.08a208,208,0,0,1,29.15-53.84L260,252.78,141.92,107A205.85,205.85,0,0,1,205.6,72.52l95.49,158.21L256,62.45q6.47-.48,12.9-.54a205.43,205.43,0,0,1,61.65,8.84L353.08,169l23.17-78.14a206.76,206.76,0,0,1,57.16,50.05l13.08,22.41,7.65,9.67a207.52,207.52,0,0,1,18.93,139,132.33,132.33,0,0,1,7.74,38.31,235.8,235.8,0,0,0,11.48-155.53C463.73,88.09,366.8,18.05,261.31,19.1Z"/><path class="cls-1" d="M349.79,242.53a45.38,45.38,0,0,1,9,6.95c12.21,12.21,16.07,29.9,13.25,47.35s-12,35.21-26.82,50-32.54,24-50,26.83-35.13-1-47.34-13.26a48,48,0,0,1-13-24.74,116.19,116.19,0,0,0-2,21.58,114.73,114.73,0,1,0,117-114.7Z"/><path class="cls-2" d="M321.45,254a50.56,50.56,0,0,0-7.08.66c-13,2.09-27.55,9.39-39.75,21.59S255.12,303,253,316s.75,23.89,8,31.16,18.16,10.12,31.16,8,27.56-9.39,39.76-21.59,19.49-26.76,21.59-39.76-.75-23.89-8-31.16c-5.45-5.45-12.94-8.42-21.83-8.68-.74,0-1.49,0-2.25,0Zm-13.81,20.35a16,16,0,0,1,11.86,4.38c7.5,7.5,5.16,22-5.22,32.37s-24.88,12.72-32.37,5.23-5.16-22,5.22-32.38c6.16-6.16,13.78-9.49,20.51-9.6Z"/></g></g></svg>