<svg style="height: 512px; width: 512px;" xmlns="http://www.w3.org/2000/svg" viewBox="0 0 512 512"><defs><linearGradient x1="0" x2="1" y1="0" y2="1" id="delapouite-info-gradient-0"><stop offset="0%" stop-color="#50e3c2" stop-opacity="1"></stop><stop offset="100%" stop-color="#4a90e2" stop-opacity="1"></stop></linearGradient></defs><polygon points="492.51,353.97,353.97,492.51,158.03,492.51,19.49,353.97,19.49,158.03,158.03,19.49,353.97,19.49,492.51,158.03" fill="url(#delapouite-info-gradient-0)"></polygon><g class="" style="" transform="translate(0,0)"><g transform="translate(25.6, 25.6) scale(0.9, 0.9) rotate(0, 256, 256) skewX(0) skewY(0)"><path d="M256 21C126.426 21 21 126.426 21 256C21 385.574 126.426 491 256 491C385.574 491 491 385.574 491 256C491 126.426 385.574 21 256 21Z" class="" fill="#ff00f9" fill-opacity="0"></path><path d="M256 57C366.118 57 455 145.882 455 256C455 366.118 366.118 455 256 455C145.882 455 57 366.118 57 256C57 145.882 145.882 57 256 57Z" class="selected" fill="#6ffcdc" fill-opacity="1" stroke="#0000ff" stroke-opacity="1" stroke-width="20"></path><path d="M248.648 93.744C240.421 93.744 233.331 96.72 227.378 102.672C221.602 108.624 218.713 115.627 218.713 123.68C218.713 131.907 221.603 138.91 227.379 144.686C233.329 150.462 240.419 153.352 248.647 153.352C256.875 153.352 263.877 150.462 269.653 144.686C275.43 138.909 278.319 131.906 278.319 123.68C278.319 115.627 275.343 108.624 269.392 102.672C263.615 96.72 256.7 93.744 248.647 93.744Z" class="" fill="#0000ff" fill-opacity="1" stroke="#0000ff" stroke-opacity="1" stroke-width="5"></path><path d="M185.891 176.197L185.891 204.293L232.106 204.293L232.106 390.423L185.89 390.423L185.89 418.256L326.11 418.256L326.11 390.422L280.42 390.422L280.42 176.197L185.89 176.197Z" class="" fill="#0000ff" fill-opacity="1"></path></g></g></svg>