<svg xmlns="http://www.w3.org/2000/svg" viewBox="0 0 512 512"><defs><style>.cls-1{fill:#960000;}.cls-2{fill:#c80000;}</style></defs><g id="ACCEPT"><g id="HARM"><g id="RESOLVE_2" data-name="RESOLVE 2"><path class="cls-1" d="M349.74,242.53a45.61,45.61,0,0,1,8.95,6.95c12.21,12.21,16.07,29.9,13.26,47.35s-12.05,35.21-26.83,50-32.54,24-50,26.83-35.14-1-47.35-13.26a48,48,0,0,1-13-24.74,116.19,116.19,0,0,0-2,21.58,114.73,114.73,0,1,0,117-114.7Z"/><path class="cls-2" d="M321.4,254a50.42,50.42,0,0,0-7.08.66c-13,2.09-27.56,9.39-39.76,21.59S255.06,303,253,316s.75,23.89,8,31.16,18.16,10.12,31.16,8,27.56-9.39,39.76-21.59,19.49-26.76,21.59-39.76-.75-23.89-8-31.16c-5.46-5.45-13-8.42-21.83-8.68-.74,0-1.49,0-2.25,0Zm-13.81,20.35a16,16,0,0,1,11.85,4.38c7.5,7.5,5.16,22-5.22,32.37s-24.87,12.72-32.37,5.23-5.16-22,5.22-32.38c6.16-6.16,13.78-9.49,20.52-9.6Z"/><path class="cls-1" d="M499.12,266a227.4,227.4,0,0,1-1.37,25,236.7,236.7,0,0,1-17,59.23A132.67,132.67,0,0,0,473,311.93a207.52,207.52,0,0,0-18.93-139l-7.31-15.23L433.36,140.9a207,207,0,0,0-57.17-50.05L353.36,79.07l-22.84-8.32a205.54,205.54,0,0,0-61.66-8.84q-6.42.06-12.89.54L263.45,141,205.54,72.52A205.79,205.79,0,0,0,141.87,107L259.93,252.78,105.54,144.42a208,208,0,0,0-29.16,53.84l81.15,63.19L65.69,242.13a205.41,205.41,0,0,0,.18,54.37l2.81,24.23L76,338.06a205.62,205.62,0,0,0,24,47.36l15.68,19.92,11.44,12.15A207,207,0,0,0,284.89,475a132.59,132.59,0,0,0,31.26,11.91,236.12,236.12,0,0,1-49.18,6C144,490.13,45.19,389.59,45.19,266c0-125.35,101.62-227,227-227S499.12,140.63,499.12,266Z"/></g></g></g></svg>