<svg xmlns="http://www.w3.org/2000/svg" viewBox="0 0 512 512"><defs><style>.cls-1{fill:#7f0000;}.cls-2{fill:#bf0000;}</style></defs><g id="HARM"><g id="RESOLVE_2" data-name="RESOLVE 2"><path class="cls-1" d="M261.25,19.1a237.64,237.64,0,0,0-59.11,8.12C75.79,61.08.8,191,34.66,317.31,67.75,440.8,192.55,515.21,316.15,486.92A132.59,132.59,0,0,1,284.89,475a207,207,0,0,1-157.72-57.52l-11.44-12.15-15.68-19.92a205.62,205.62,0,0,1-24-47.36l-7.32-17.33L65.87,296.5a205.41,205.41,0,0,1-.18-54.37l91.84,19.32L76.38,198.26a208,208,0,0,1,29.16-53.84L259.93,252.78,141.87,107a205.79,205.79,0,0,1,63.67-34.49L263.45,141,256,62.45q6.46-.48,12.89-.54a205.54,205.54,0,0,1,61.66,8.84l22.84,8.32,22.83,11.78a207,207,0,0,1,57.17,50.05l13.41,16.85L454.08,173a207.52,207.52,0,0,1,18.93,139,132.67,132.67,0,0,1,7.75,38.31,235.92,235.92,0,0,0,11.48-155.53C463.67,88.09,366.74,18.05,261.25,19.1Z"/><path class="cls-1" d="M349.74,242.53a45.61,45.61,0,0,1,8.95,6.95c12.21,12.21,16.07,29.9,13.26,47.35s-12.05,35.21-26.83,50-32.54,24-50,26.83-35.14-1-47.35-13.26a48,48,0,0,1-13-24.74,116.19,116.19,0,0,0-2,21.58,114.73,114.73,0,1,0,117-114.7Z"/><path class="cls-2" d="M321.4,254a50.42,50.42,0,0,0-7.08.66c-13,2.09-27.56,9.39-39.76,21.59S255.06,303,253,316s.75,23.89,8,31.16,18.16,10.12,31.16,8,27.56-9.39,39.76-21.59,19.49-26.76,21.59-39.76-.75-23.89-8-31.16c-5.46-5.45-13-8.42-21.83-8.68-.74,0-1.49,0-2.25,0Zm-13.81,20.35a16,16,0,0,1,11.85,4.38c7.5,7.5,5.16,22-5.22,32.37s-24.87,12.72-32.37,5.23-5.16-22,5.22-32.38c6.16-6.16,13.78-9.49,20.52-9.6Z"/></g></g></svg>