<svg xmlns="http://www.w3.org/2000/svg" viewBox="0 0 512 512"><defs><style>.cls-1,.cls-2{fill:#3f0000;}.cls-1{stroke:#3f0000;stroke-miterlimit:10;}.cls-3{fill:#7f0000;}</style></defs><g id="HARM"><g id="RESOLVE_1" data-name="RESOLVE 1"><path class="cls-1" d="M256.09,19.1A237.5,237.5,0,0,0,197,27.22C70.63,61.08-4.36,191,29.5,317.31,62.59,440.8,187.39,515.21,311,486.92A132.35,132.35,0,0,1,279.74,475,207,207,0,0,1,122,417.49l-13.48-14.55L94.89,385.42a205.62,205.62,0,0,1-24-47.36l-7.2-17.33L60.71,296.5a205.83,205.83,0,0,1-.18-54.37l3-24.36,7.67-19.51a208.28,208.28,0,0,1,29.16-53.84l105,60.61-68.63-98a205.85,205.85,0,0,1,63.68-34.49l27.24-8.18,23.18-1.89q6.46-.48,12.89-.54a205.54,205.54,0,0,1,61.66,8.84l23.65,11,22,9.09A207.05,207.05,0,0,1,428.2,140.9l13.1,14.44L448.93,173a208,208,0,0,1,16.41,42.22,205.89,205.89,0,0,1,2.52,96.73,133,133,0,0,1,7.74,38.31,235.8,235.8,0,0,0,11.48-155.53C458.51,88.09,361.59,18.05,256.09,19.1Z"/><path class="cls-2" d="M344.58,242.53a45.61,45.61,0,0,1,8.95,6.95c12.22,12.21,16.07,29.9,13.26,47.35S354.74,332,340,346.82s-32.54,24-50,26.83-35.13-1-47.35-13.26a48,48,0,0,1-13-24.74,114.74,114.74,0,1,0,114.92-93.12Z"/><path class="cls-3" d="M316.24,254a50.56,50.56,0,0,0-7.08.66c-13,2.09-27.56,9.39-39.76,21.59S249.91,303,247.81,316s.75,23.89,8,31.16S274,357.3,287,355.2s27.56-9.39,39.76-21.59,19.5-26.76,21.59-39.76-.75-23.89-8-31.16c-5.45-5.45-12.94-8.42-21.83-8.68-.74,0-1.49,0-2.25,0Zm-13.81,20.35a16,16,0,0,1,11.86,4.38c7.49,7.5,5.16,22-5.22,32.37s-24.88,12.72-32.38,5.23-5.16-22,5.22-32.38c6.17-6.16,13.78-9.49,20.52-9.6Z"/></g></g></svg>