<svg xmlns="http://www.w3.org/2000/svg" viewBox="0 0 512 512"><defs><style>.cls-1{fill:#7f0000;}.cls-2{fill:#3f0000;}</style></defs><g id="HARM"><g id="INSIGHT_1" data-name="INSIGHT 1"><path id="Pupil" class="cls-1" d="M303.7,99.51a65,65,0,0,0-45-18h0a65.26,65.26,0,1,0,45,18Zm-45.4,68.13a23.4,23.4,0,1,1,23.39-23.41A23.42,23.42,0,0,1,258.3,167.64Zm45.4-68.13a65,65,0,0,0-45-18h0a65.26,65.26,0,1,0,45,18Zm-45.4,68.13a23.4,23.4,0,1,1,23.39-23.41A23.42,23.42,0,0,1,258.3,167.64Zm45.4-68.13a65,65,0,0,0-45-18h0a65.26,65.26,0,1,0,45,18Zm-45.4,68.13a23.4,23.4,0,1,1,23.39-23.41A23.42,23.42,0,0,1,258.3,167.64Z"/><path class="cls-2" d="M406.09,282.69V352.6c4.19,8.54,8.53,16.73,8.53,27.56,0,13.24-8.75,22.78-18.09,22.78-9.13,0-18.69-10-18.69-23.94,0-12.22,5.1-20.64,9.56-29.59V289.63c-6.51-19.32-16.22-25.45-26.54-21.72V226.24A401.64,401.64,0,0,0,409.07,204h45.2C435.64,222.23,417,244.72,406.09,282.69ZM494.83,158.8c-33,49.83-80.77,87.12-134,108.82a291.28,291.28,0,0,1-90,21.07q-7.2.51-14.42.62a256.33,256.33,0,0,1-89-14,239,239,0,0,1-25.35-10.52A239.65,239.65,0,0,1,82.64,223.9C74.76,216.85,66,208.81,57.89,200c-11.54-12.52-21.66-26.51-25.72-41.23,20.19-37.74,48.7-69.38,84.66-92.29C241.41-14.68,416.3,37.68,494.83,158.8Zm-29.17-.36C373.78,11.86,140.41,12.08,57.19,160.28l.46.39-.46.39a353,353,0,0,0,54.67,42.55c45.21,28.32,92.77,42.1,140.82,42.29h.22C324.81,246.14,397.81,215.94,465.66,158.44Z"/></g></g></svg>