<svg xmlns="http://www.w3.org/2000/svg" xmlns:xlink="http://www.w3.org/1999/xlink" viewBox="0 0 512 512"><defs><style>.cls-1{fill:url(#radial-gradient);}</style><radialGradient id="radial-gradient" cx="255.94" cy="256" r="237.52" gradientTransform="translate(0 -128) scale(1 1.5)" gradientUnits="userSpaceOnUse"><stop offset="0" stop-color="#bf0000"/><stop offset="1" stop-color="#3f0000"/></radialGradient></defs><g id="COMPLICATIONS"><g id="MAJOR"><path class="cls-1" d="M458.26,239.57l22.83-4.78,2.81-.59,9.56-2v-19.1l-6.33,1.33-79.55,16.62-26.49,5.54-55.93,11.69c-13-11.18-20-24.73-27.16-39.89l-1.67-3.53,34.18-46.76.58-.79c9.76,28.37,24.84,58.48,51.36,78.35l24.6-5,1.83-.54L407.07,229c-37.27-19.15-50.45-51.64-61.94-88.83l-.44-1.43,43.69-59.78,3-4.1,41.19-56.34H409.42L374.91,65.7l-4.09,5.6-46.71,63.9c-34.73.23-70.42-3-95.76-22.5l-12-79.19-1-6.47-1.29-8.55H195.2L198,37.24l-.11-4.4,12.18,83.44c-17,16.89-39.15,28.73-67.39,26.48L93.45,80.59,44.23,18.49H20.39l53,66.83,4.18,5.27L129,155.51c-3.16,27.24-16.63,53.33-32.88,73.74l-71-18.63L22.73,210l-4.31-1.13v19.32l2.56.67,71.38,18.74c8.29,26.73,6.3,57.28,2.12,86L22.8,367.15l-4.38,2.05v20.63l9.18-4.3,67.92-31.78,1.09-.51A190.52,190.52,0,0,1,104.47,382c1.33,7.25,2.58,14.68,3.19,19.36l-51.74,52-37.5,37.69v2.43H42.37l20.91-21h0l58.27-58.57c10.1-.83,33.7-2.28,59.06-3.17,7.9-.28,16.15-.45,24.46-.47,23.47-.05,49.4,1.12,67.34,4.45l20.27,63,1.54,4.79,3.54,11h19.63l-5.19-16.14L310,470.43,291.2,412.17c23.43-27.05,48.62-54.87,86-69.58l64.45,25.5,4.18,1.65,47.6,18.84v-20.1l-37.78-15-5.21-2.06-62.74-24.82c-3.11-24.21,8.64-50.64,20.2-76.57ZM266.92,336.72l-10.1-31.4a39.76,39.76,0,0,0,8.16-7.15l36.5,14.44a169,169,0,0,0-24.68,16.16C272.9,331.76,269.7,334.38,266.92,336.72Zm-71.07-62a39.17,39.17,0,0,0,2.08,10.44l-35.27,16.5c1.05-11.9.92-24-2-36.19Zm-30.58-27.35c5-8.75,9.83-18.25,13.09-29.59l24.91,31.43a39.28,39.28,0,0,0-4.08,7.07Zm41.58,54.25h0L169.2,339.51a54.79,54.79,0,0,0-9.59-15.23l.09-.56Zm17.74,8.67a39.43,39.43,0,0,0,10.6,1.45,38,38,0,0,0,4-.2l10.47,32.54c-13.32-.16-37.61.08-61.69,3Zm22.23-75.64L241.11,197a109.17,109.17,0,0,0,25.15,17.39L250.43,236A37.88,37.88,0,0,0,246.82,234.69Zm26.73,46.78c.26-1.13.47-2.28.64-3.43l45.58-9.53c-4.62,9.43-6.38,18.89-6.95,28.5Zm30-28.66-31.15,6.51a39.53,39.53,0,0,0-6.93-12.21l18.42-25.21C289,232.31,295,243,303.54,252.81ZM232.78,136.13c23.18,13.26,50.47,17.92,77,18.68l-32.37,44.3c-15.06-6.37-26.14-17.76-38.57-30.33l-2.34-2.37-4.59-30.28,0-.12Zm-5,97.52a39.25,39.25,0,0,0-10.25,3.48l-25.18-31.77a132,132,0,0,0,29.42-11.45Zm-14.52-96,5.48,36.25c-11.18,7.5-24.44,12.15-39.05,15.49l-22.46-28.34C178.25,159.21,198.58,149.44,213.24,137.65Zm-69.67,36.28.5.63,19.15,24.15-.08.71c-1.93,17.37-8.88,29.63-16.65,43.06L115,234.2l-.07,0C127,217.56,138.38,195.1,143.57,173.93ZM123.4,385.56c-.42-2.17-1.06-4.9-1.43-6.92-1.84-10-4.7-23.39-8.85-33.12l28.45-13.32,1.52,1.53c5.85,5.87,10,10.3,11.22,20.75Zm15.89-125.65.56,1.4c6.1,15.14,5.39,31.77,2.9,49.71l-29,13.58c2.87-22.76,3.42-48.28-2.06-71.93h0Zm72.18,131.64h-6.55c-8.5.05-16.9.25-25,.53-15.57.55-28,1.33-37.85,2.07l.07-.07a7.94,7.94,0,0,1-.82-.06l24-24.11,1-.23c23.75-5.79,59.86-6.75,80.11-6.78,4,0,6.81,0,9.35.07l10.29,32C249.77,392.55,229.58,391.66,211.47,391.55Zm73.59-1.18-.71.53-.17-.53-11-34.32c3.55-3.17,8.73-7.63,15-12.42,11.42-8.73,26.21-17.7,35.68-19.63l4.24-.86,25.37,10C324.89,348,303.58,369.47,285.06,390.37ZM368.49,319l-.77-.31-36.59-14.48c0-13.15,1.4-22.84,9.12-33.92l5-7.14L385,254.88l.12,0C376.44,274.07,368.18,297,368.49,319Z"/></g></g></svg>