<svg xmlns="http://www.w3.org/2000/svg" viewBox="0 0 512 512"><defs><style>.cls-1{fill:red;}.cls-2{fill:#bf0000;}</style></defs><g id="HARM"><g id="PROWESS_4" data-name="PROWESS 4"><path class="cls-1" d="M414.13,84.19a39.5,39.5,0,1,0,39.57,39.5,39.2,39.2,0,0,0-39.57-39.5ZM308.33,29.83A28.66,28.66,0,1,0,337,58.51a28.51,28.51,0,0,0-28.67-28.68ZM90.17,322.56a49.51,49.51,0,1,0,49.53,49.52A49.36,49.36,0,0,0,90.17,322.56Zm258-171.24A22.79,22.79,0,1,0,371,174.11a22.61,22.61,0,0,0-22.83-22.79ZM261.49,89.88a16.72,16.72,0,1,0,16.73,16.73,16.63,16.63,0,0,0-16.73-16.73ZM91.15,187.65a21.18,21.18,0,1,0,21.18,21.18,21,21,0,0,0-21.18-21.18Zm77.51,94.54a32.09,32.09,0,1,0,32.07,32.1,32,32,0,0,0-32.07-32.1ZM391.6,243.05a16.51,16.51,0,1,0,16.49,16.52,16.41,16.41,0,0,0-16.49-16.52ZM238.11,374.85a48.43,48.43,0,1,0,48.44,48.45A48.29,48.29,0,0,0,238.11,374.85Zm137,59.88A22.86,22.86,0,1,0,398,457.59a22.69,22.69,0,0,0-22.86-22.86Z"/><path class="cls-2" d="M430.33,375.37c-18.07-38.87-22.46-79.24-7.49-113.92-56.77,70.27-91.6,5.3-4.93-85.08C295.61,251.8,240.13,214.23,401,70.19,277.18,136,181.5,153.46,243.53,88.47c-44.75,12.79-70,6.27-91.47-2.93a773.7,773.7,0,0,0-135.18-67,949.58,949.58,0,0,0,56.49,93.31c8.39,22,3.6,46.57-37.84,76.32C185.72,148,142,244.71,24.26,314.42c200-74.2,249.65-57,121.08,93.78C246.42,334.73,326,354.59,293.17,445.84c38.06-29.48,69.66-35.77,93.87-25.1q52.21,36.94,108.66,70.93C475.19,451.39,453.54,412.52,430.33,375.37ZM374,383.64c-20-11.91-31.49.3-44.26,16.86,8.8-18.17,13.38-36.95,3.24-50.86l-4.46-3.84-44.85-35.35L235.9,336.93l17.19-25.34c7.31-12.4,3.43-27.17-5.65-41.14q-16.37-16.32-32.22-33c-1.66-1.23-3.31-2.38-4.95-3.5l-66.44,18.87L165.59,227c10.57-17.62,0-41.59-9.84-55.7q-8.4-9.81-16.62-19.75l-43.67,7.29c18.43-7.3,31.37-22.38,16.85-40L110,116.26c.83.86,1.57,1.71,2.27,2.56l2.06,2.33Q89.79,90.29,66.44,58.49q43,32.32,83.86,67.06L186.92,116l-22.11,22q23.38,20.3,46.09,41.39l71.86-30.46L264,178l.3-.24c-21.55,27.54,18.77,86,46,78.42l31.91-17.7L317.4,275l36.88,52.71c.26.3.53.59.79.9,13.64,12.5,31.23,1.71,43.05-14.53l-19.59,42q32.13,38.23,62.91,78.49Q406.7,409.87,374,383.64Z"/><path class="cls-1" d="M441.44,434.53Q406.7,409.87,374,383.64c-20-11.91-31.49.3-44.26,16.86,8.8-18.17,13.38-36.95,3.24-50.86l-4.46-3.84-44.85-35.35L235.9,336.93l17.19-25.34c7.31-12.4,3.43-27.17-5.65-41.14q-16.37-16.32-32.22-33c-1.66-1.23-3.31-2.38-4.95-3.5l-66.44,18.87L165.59,227c10.57-17.62,0-41.59-9.84-55.7q-8.4-9.81-16.62-19.75l-43.67,7.29c18.43-7.3,31.37-22.38,16.85-40l2.06,2.33Q89.79,90.29,66.44,58.49q43,32.32,83.86,67.06L186.92,116l-22.11,22q23.38,20.3,46.09,41.39l71.86-30.46L264,178l.3-.24c-21.55,27.54,18.77,86,46,78.42l31.91-17.7L317.4,275l36.88,52.71c.26.3.53.59.79.9,13.64,12.5,31.23,1.71,43.05-14.53l-19.59,42Q410.66,394.28,441.44,434.53Z"/></g></g></svg>