<svg xmlns="http://www.w3.org/2000/svg" xmlns:xlink="http://www.w3.org/1999/xlink" viewBox="0 0 512 512"><defs><style>.cls-1{fill:url(#New_Gradient_Swatch_1);}</style><linearGradient id="New_Gradient_Swatch_1" x1="259.94" y1="487.55" x2="259.94" y2="24.45" gradientUnits="userSpaceOnUse"><stop offset="0" stop-color="#bf0000"/><stop offset="1" stop-color="#3f0000"/></linearGradient></defs><g id="REDUCED_EFFECT" data-name="REDUCED EFFECT"><path class="cls-1" d="M260.7,487.55C133,487.55,28.39,382.92,28.39,255.23S133,24.45,260.7,24.45A230.5,230.5,0,0,1,491.49,255.23c0,127.69-103.1,232.32-230.78,232.32Zm-1.06-82L377,287.58l-23.94-25.1-65.41,37.94V128a167.28,167.28,0,0,1,103.6,268.91,193.71,193.71,0,0,0,61.22-141.63A191.18,191.18,0,0,0,260.7,63.45c-106.39,0-193.31,85.39-193.31,191.78A192.9,192.9,0,0,0,128,395.55,167.3,167.3,0,0,1,231,128.2V296.92l-62.5-35.62-25.09,26.28Z"/></g></svg>