<svg xmlns="http://www.w3.org/2000/svg" xmlns:xlink="http://www.w3.org/1999/xlink" viewBox="0 0 512 512"><defs><style>.cls-1{fill:url(#radial-gradient);}</style><radialGradient id="radial-gradient" cx="256.29" cy="256" r="237.52" gradientUnits="userSpaceOnUse"><stop offset="0" stop-color="#bf0000"/><stop offset="1" stop-color="#3f0000"/></radialGradient></defs><g id="COMPLICATIONS"><g id="MINOR"><path class="cls-1" d="M345.58,263.18l39.74-8.31,73.29-15.3,22.83-4.79,2.81-.58,9.56-2V213.1l-6.33,1.33-79.55,16.62-26.49,5.54-55.93,11.69c-13-11.18-20-24.73-27.16-39.89l-1.67-3.53,34.18-46.76,57.87-79.18,3-4.1,41.19-56.33H409.77L375.26,65.7l-4.09,5.59-60.51,82.78-32.91,45c-15.06-6.36-26.14-17.76-38.57-30.33l-2.34-2.37-4.59-30.28L216.72,33.5l-1-6.47-1.29-8.54h-18.9l2.84,18.75-.11-4.41,15.2,104.1,5.59,37c-11.18,7.5-24.44,12.15-39,15.49l-22.9-28.89L93.8,80.58,44.58,18.49H20.74l53,66.83,4.18,5.26,66.54,84,19.15,24.16-.08.7c-1.93,17.37-8.88,29.63-16.65,43.07L115.3,234.2,25.49,210.61,23.08,210l-4.31-1.14v19.32l2.56.67L112,252.65l27.61,7.25.56,1.4c6.1,15.15,5.39,31.77,2.9,49.71l-30.31,14.2L23.15,367.14l-4.38,2.06v20.62l9.18-4.3,67.92-31.77,17.13-8,28.92-13.54,1.52,1.53c5.85,5.86,10,10.29,11.22,20.75l-31.14,31.3L56.27,453.39l-37.5,37.69v2.43h24l20.91-21h0l77.94-78.36,24.11-24.24,1-.23c23.75-5.79,59.86-6.75,80.11-6.78,4,0,6.81,0,9.35.08l10.4,32.29L293,477.73l1.54,4.78,3.54,11h19.63l-5.19-16.14-2.24-6.95-25.77-80.06-11-34.32c3.55-3.17,8.73-7.63,15-12.42,11.42-8.73,26.21-17.7,35.68-19.62l4.24-.87,25.37,10L442,368.08l4.18,1.66,47.6,18.83V368.48l-37.78-15-5.21-2-82.75-32.74-36.59-14.48c0-13.16,1.4-22.85,9.12-33.93Zm-61.35-41.29c5.12,10.41,11.11,21.1,19.66,30.91l-31.15,6.52a39.69,39.69,0,0,0-6.93-12.22Zm-62.13-28,6,39.74a39.25,39.25,0,0,0-10.25,3.48l-25.18-31.77A132,132,0,0,0,222.1,193.9Zm-43.39,23.92,24.91,31.43a38.6,38.6,0,0,0-4.08,7.07l-33.92-8.92C170.58,238.65,175.45,229.15,178.71,217.82Zm17.49,56.93a39.32,39.32,0,0,0,2.08,10.45L163,301.7c1.05-11.91.92-24.05-2-36.2ZM160,324.27l.09-.55,47.15-22.07h0L169.55,339.5A54.79,54.79,0,0,0,160,324.27Zm28.37,22.85,36.61-36.8a39.43,39.43,0,0,0,10.6,1.45,35.54,35.54,0,0,0,4-.2L250,344.11C236.7,344,212.41,344.2,188.33,347.12ZM250.78,236a35.39,35.39,0,0,0-3.61-1.32L241.46,197a109.45,109.45,0,0,0,25.15,17.38Zm26.37,92.76c-3.9,3-7.1,5.61-9.88,8l-10.1-31.4a39.81,39.81,0,0,0,8.16-7.16l36.5,14.44A169,169,0,0,0,277.15,328.76Zm36-31.76L273.9,281.47c.26-1.14.47-2.29.64-3.44l45.58-9.53C315.5,277.93,313.74,287.39,313.17,297Z"/></g></g></svg>