<svg xmlns="http://www.w3.org/2000/svg" viewBox="0 0 512 512"><defs><style>.cls-1{fill:#7f0000;}</style></defs><g id="HARM"><g id="PROWESS_1" data-name="PROWESS 1"><path id="PROWESS_1-2" data-name="PROWESS 1" class="cls-1" d="M443.44,434.53Q408.7,409.87,376,383.64c-20-11.91-31.49.3-44.26,16.86,8.8-18.17,13.38-36.95,3.24-50.86l-4.46-3.84-44.85-35.35L237.9,336.93l17.19-25.34c7.31-12.4,3.43-27.17-5.65-41.14q-16.37-16.32-32.22-33c-1.66-1.23-3.31-2.38-4.95-3.5l-66.44,18.87L167.59,227c10.57-17.62,0-41.59-9.84-55.7q-8.4-9.81-16.62-19.75l-43.67,7.29c18.43-7.3,31.37-22.38,16.85-40l2.06,2.33Q91.79,90.29,68.44,58.49q43,32.32,83.86,67.06L188.92,116l-22.11,22q23.38,20.3,46.09,41.39l71.86-30.46L266,178l.3-.24c-21.55,27.54,18.77,86,46,78.42l31.91-17.7L319.4,275l36.88,52.71c.26.3.53.59.79.9,13.64,12.5,31.23,1.71,43.05-14.53l-19.59,42Q412.66,394.28,443.44,434.53Z"/></g></g></svg>