<svg xmlns="http://www.w3.org/2000/svg" xmlns:xlink="http://www.w3.org/1999/xlink" viewBox="0 0 512 512"><defs><style>.cls-1{fill:url(#New_Gradient_Swatch_1);}</style><linearGradient id="New_Gradient_Swatch_1" x1="21.28" y1="256" x2="490.72" y2="256" gradientUnits="userSpaceOnUse"><stop offset="0" stop-color="#bf0000"/><stop offset="1" stop-color="#3f0000"/></linearGradient></defs><g id="LOST_OPPORTUNITY" data-name="LOST OPPORTUNITY"><path class="cls-1" d="M373.33,52.76A234.57,234.57,0,0,0,52.77,138.67C-12,250.93,26.41,394.41,138.67,459.23s255.75,26.36,320.56-85.91S485.59,117.58,373.33,52.76Zm-211.87,367A189.1,189.1,0,0,1,81,184.37L327.62,431A188.73,188.73,0,0,1,161.46,419.76Zm211.18-14.87L107.14,139.38a187.3,187.3,0,0,1,32.24-32.29L404.89,372.6A187.71,187.71,0,0,1,372.64,404.89ZM431,327.6,184.41,81A189.12,189.12,0,0,1,431,327.6Z"/></g></svg>