<svg xmlns="http://www.w3.org/2000/svg" viewBox="0 0 512 512"><defs><style>.cls-1{fill:#bf0000;}.cls-2{fill:#7f0000;}</style></defs><g id="HARM"><g id="INSIGHT_2" data-name="INSIGHT 2"><path id="Pupil" class="cls-1" d="M305.51,89.71A78.5,78.5,0,0,0,251.22,68h0a78.81,78.81,0,1,0,54.29,21.71ZM250.71,172a28.25,28.25,0,1,1,28.23-28.27A28.28,28.28,0,0,1,250.71,172Zm54.8-82.26A78.5,78.5,0,0,0,251.22,68h0a78.81,78.81,0,1,0,54.29,21.71ZM250.71,172a28.25,28.25,0,1,1,28.23-28.27A28.28,28.28,0,0,1,250.71,172Zm54.8-82.26A78.5,78.5,0,0,0,251.22,68h0a78.81,78.81,0,1,0,54.29,21.71ZM250.71,172a28.25,28.25,0,1,1,28.23-28.27A28.28,28.28,0,0,1,250.71,172Z"/><path class="cls-2" d="M398.59,282.69V352.6c4.19,8.54,8.53,16.73,8.53,27.56,0,13.24-8.75,22.78-18.09,22.78-9.13,0-18.69-10-18.69-23.94,0-12.22,5.1-20.64,9.56-29.59V289.63c-6.51-19.32-16.22-25.45-26.54-21.72V226.24A401.64,401.64,0,0,0,401.57,204h45.2C428.14,222.23,409.46,244.72,398.59,282.69Zm-264-17.94A239.65,239.65,0,0,1,75.14,223.9c-7.88-7.05-16.67-15.09-24.75-23.86,11.79,18.34,22,39.48,27.42,60.27v50c-4.76,10.14-12.06,17.21-12.06,28.41,0,9.09,11.63,18.09,21,18.09,9.2,0,21.6-9.67,21.59-19.25,0-11.36-7.31-17.81-11.87-27V278.22C103,265.1,117.78,261.12,134.61,264.75ZM487.33,158.8c-33,49.83-80.77,87.12-134,108.82a291.28,291.28,0,0,1-90,21.07q-7.2.51-14.42.62a256.33,256.33,0,0,1-88.95-14,239,239,0,0,1-25.35-10.52A239.65,239.65,0,0,1,75.14,223.9c-7.88-7.05-16.67-15.09-24.75-23.86-11.54-12.52-21.66-26.51-25.72-41.23,20.19-37.74,48.7-69.38,84.66-92.29C233.91-14.68,408.8,37.68,487.33,158.8Zm-29.17-.36C366.28,11.86,132.91,12.08,49.69,160.28l.46.39-.46.39a353,353,0,0,0,54.67,42.55c45.21,28.32,92.77,42.1,140.82,42.29h.22C317.31,246.14,390.31,215.94,458.16,158.44Z"/></g></g></svg>