<svg xmlns="http://www.w3.org/2000/svg" viewBox="0 0 512 512"><defs><style>.cls-1{fill:#d7af00;}.cls-2{fill:#675300;}</style></defs><g id="RESIST"><path class="cls-1" d="M436.33,375.37c-18.07-38.87-22.46-79.24-7.49-113.92-56.77,70.27-91.6,5.3-4.93-85.08C301.61,251.8,246.13,214.23,407,70.19,283.18,136,187.5,153.46,249.53,88.47c-44.75,12.79-70,6.27-91.47-2.93a773.7,773.7,0,0,0-135.18-67,949.58,949.58,0,0,0,56.49,93.31c8.39,22,3.6,46.57-37.84,76.32C191.72,148,148,244.71,30.26,314.42c200-74.2,249.65-57,121.08,93.78C252.42,334.73,332,354.59,299.17,445.84c38.06-29.48,69.66-35.77,93.87-25.1q52.21,36.94,108.66,70.93C481.19,451.39,459.54,412.52,436.33,375.37ZM380,383.64c-20-11.91-31.49.3-44.26,16.86,8.8-18.17,13.38-36.95,3.24-50.86l-4.46-3.84-44.85-35.35L241.9,336.93l17.19-25.34c7.31-12.4,3.43-27.17-5.65-41.14q-16.37-16.32-32.22-33c-1.66-1.23-3.31-2.38-4.95-3.5l-66.44,18.87L171.59,227c10.57-17.62,0-41.59-9.84-55.7q-8.4-9.81-16.62-19.75l-43.67,7.29c18.43-7.3,31.37-22.38,16.85-40L116,116.26c.83.86,1.57,1.71,2.27,2.56l2.06,2.33Q95.79,90.29,72.44,58.49q43,32.32,83.86,67.06L192.92,116l-22.11,22q23.38,20.3,46.09,41.39l71.86-30.46L270,178l.3-.24c-21.55,27.54,18.77,86,46,78.42l31.91-17.7L323.4,275l36.88,52.71c.26.3.53.59.79.9,13.64,12.5,31.23,1.71,43.05-14.53l-19.59,42q32.13,38.23,62.91,78.49Q412.7,409.87,380,383.64Z"/><path class="cls-2" d="M447.44,434.53Q412.7,409.87,380,383.64c-20-11.91-31.49.3-44.26,16.86,8.8-18.17,13.38-36.95,3.24-50.86l-4.46-3.84-44.85-35.35L241.9,336.93l17.19-25.34c7.31-12.4,3.43-27.17-5.65-41.14q-16.37-16.32-32.22-33c-1.66-1.23-3.31-2.38-4.95-3.5l-66.44,18.87L171.59,227c10.57-17.62,0-41.59-9.84-55.7q-8.4-9.81-16.62-19.75l-43.67,7.29c18.43-7.3,31.37-22.38,16.85-40l2.06,2.33Q95.79,90.29,72.44,58.49q43,32.32,83.86,67.06L192.92,116l-22.11,22q23.38,20.3,46.09,41.39l71.86-30.46L270,178l.3-.24c-21.55,27.54,18.77,86,46,78.42l31.91-17.7L323.4,275l36.88,52.71c.26.3.53.59.79.9,13.64,12.5,31.23,1.71,43.05-14.53l-19.59,42Q416.66,394.28,447.44,434.53Z"/></g></svg>