<svg id="Elite" xmlns="http://www.w3.org/2000/svg" viewBox="0 0 512 512"><defs><style>.cls-1,.cls-2{fill:#96ffff;}.cls-1{opacity:0.3;}</style></defs><g id="THUGS"><path class="cls-1" d="M256,20c-46.91,0-89.89,25.43-121.74,68.12S82.33,190.53,82.33,256.69s20.08,125.87,51.93,168.56S209.09,493.37,256,493.37s89.86-25.43,121.71-68.12,52-102.41,52-168.56-20.11-125.87-52-168.56S302.9,20,256,20ZM157.25,231.31c1.88,0,3.75,0,5.63.06a28.82,28.82,0,1,0,43.4,10A180.18,180.18,0,0,1,245.72,265c-37.07,62.16-128.8,25.07-137.19-22.5,16.55-7.4,32.77-11,48.72-11.22Z"/><path class="cls-2" d="M256,20c-46.91,0-89.89,25.43-121.74,68.12S82.33,190.53,82.33,256.69s20.08,125.87,51.93,168.56S209.09,493.37,256,493.37s89.86-25.43,121.71-68.12,52-102.41,52-168.56-20.11-125.87-52-168.56S302.9,20,256,20Zm77.47,116.12c11,39.4,15.82,78.76,16.84,118.16,16.95-3,33.78-6.75,50.38-11.44-5.89,14.73-26.05,26.29-50.19,32-.28,44.07-4.86,88.15-10.59,132.22-7.34-42.81-13.62-85.63-16.1-128.44-22,1.09-44.25-2.78-60.31-13.31,19.79-1.9,39.66-4,59.47-6.75-1.16-40.83,1.51-81.64,10.5-122.47ZM157.25,231.31c1.88,0,3.75,0,5.63.06a28.82,28.82,0,1,0,43.4,10A180.18,180.18,0,0,1,245.72,265c-37.07,62.16-128.8,25.07-137.19-22.5,16.55-7.4,32.77-11,48.72-11.22Z"/></g></svg>