<svg id="Elite" xmlns="http://www.w3.org/2000/svg" viewBox="0 0 512 512"><defs><style>.cls-1,.cls-2{fill:#96ffff;}.cls-1{opacity:0.3;}</style></defs><g id="ROOKS"><path class="cls-1" d="M256,19.31c-46.91,0-89.89,25.44-121.74,68.13S82.33,189.85,82.33,256s20.08,125.87,51.93,168.56S209.09,492.69,256,492.69s89.86-25.44,121.71-68.13,52-102.41,52-168.56-20.11-125.87-52-168.56S302.9,19.31,256,19.31Z"/><path class="cls-2" d="M318.64,35.41c38.54,34.07,66.87,97.93,74.88,174.09a64.64,64.64,0,0,0-109.88,33.32A61,61,0,0,0,232,241a64.69,64.69,0,0,0-117.16-22.08c6.35-77.36,33.56-143.06,71.41-179.48-19.42,11.64-37.06,28-52.16,48.32C102.32,130.42,82.33,190,82.33,256s20,125.6,51.75,168.27c18.93,25.42,41.84,44.77,67.25,56.27-45.36-32.11-79-104-86.38-190.6a64.67,64.67,0,0,0,118-28.18c15.13-10.53,37.57-8.77,50.66,3.79a64.69,64.69,0,0,0,109.78,33.79c-9.26,85.21-44,154.85-89.91,184.22,28.27-10.95,53.75-31.5,74.44-59.29C409.65,381.63,429.67,322,429.67,256s-20-125.61-51.78-168.28C361,65,340.87,47.15,318.64,35.41Z"/><path class="cls-2" d="M146.42,361c54.81,94.58,164.16,93.95,218.6,0-61.41,35.33-146.18,34.46-218.59,0Z"/></g></svg>