<svg id="COINS" xmlns="http://www.w3.org/2000/svg" xmlns:xlink="http://www.w3.org/1999/xlink" viewBox="0 0 422 498"><defs><linearGradient id="linear-gradient" x1="-701.36" y1="796.38" x2="-700.3" y2="795.44" gradientTransform="matrix(421.13, 0, 0, -474.88, 295387, 378213.15)" gradientUnits="userSpaceOnUse"><stop offset="0" stop-color="#fdd470"/><stop offset="1" stop-color="#daa520"/></linearGradient></defs><g id="coins-full"><ellipse cx="211" cy="249" rx="211" ry="249" fill="#daa520"/><ellipse cx="211" cy="249" rx="211" ry="249" opacity="0.25"/><path d="M279.53,17.59c-25.88,0-50.53,7.24-72.87,20.38L440.75,249.15c.06,2.51.13,5,.13,7.57,0,48.37-11.77,93-31.38,128.9L126.66,130.5c18.28-38.37,48.53-73.17,80-92.53l-4.75-3.91h-23a244.92,244.92,0,0,0-67.66,85.38l3,0,12.34,11.12a271.47,271.47,0,0,0-12.9,33.13L391.06,414a179,179,0,0,1-25.87,27.15L103.78,205.35c2.37-14.76,6.39-29.4,9.78-41.72L109,159.5H95.41a309.56,309.56,0,0,0-9.13,37.09H94l9.78,8.85c-1.13,7-2.07,14.14-2.72,21.37L350.66,452a132.86,132.86,0,0,1-32.31,15.65L100.19,270.87c3,59.87,22.88,113.58,53.06,153,32.82,42.84,77.36,68.63,126.28,68.63a136.8,136.8,0,0,0,20.41-1.54l.5-.06,1-.15c41.91-6.2,79.22-31.58,106.81-68.54,31.9-42.74,51.31-101.14,51.31-165.46a309,309,0,0,0-4-50c-.13-.82-.26-1.63-.4-2.44-7.58-45.76-25.13-86.53-49.32-118.1C373,43.38,328.45,17.59,279.53,17.59Zm-76.09.82a143.21,143.21,0,0,0-51,15.62h26.72a185.34,185.34,0,0,1,24.31-15.62Zm-132.72,101a266.37,266.37,0,0,0-17.19,40.37H95.25a288.32,288.32,0,0,1,15.88-40.37Zm-26.78,77a301.67,301.67,0,0,0-4.22,30H82.31q1.32-15.28,4-30Zm38.5,30.19c-1.09,11.86-1.08,21.72-1.35,32.34H38.44c.8,64.64,21.26,122.89,53.44,164.87,29.49,38.5,68.46,63.2,111.56,67.81-24.67-13.2-46.75-32.57-65-56.43C103.47,389.62,81.93,327.53,81.13,259h5.62l13.31,11.69c-1.65-13.47-.11-30.62,1.1-43.5l-.66-.6H82.44Z" transform="translate(-37.56 -7)" fill="url(#linear-gradient)"/></g></svg>