<svg id="ZERO-DOT" xmlns="http://www.w3.org/2000/svg" viewBox="0 0 480 480"><path d="M256,16C123.45,16,16,123.45,16,256S123.45,496,256,496,496,388.55,496,256,388.55,16,256,16Zm0,446.82c-114.22,0-206.82-92.6-206.82-206.82S141.78,49.18,256,49.18,462.82,141.78,462.82,256,370.22,462.82,256,462.82Z" transform="translate(-16 -16)" fill="#400"/><path d="M163.36,118.12a18.37,18.37,0,0,0-3.52.36v0c-21,4-52,39.92-38.35,53.58l84.06,84-84.06,84c-16.81,16.8,33.64,67.26,50.45,50.45L256,306.45l84.06,84.06c16.81,16.8,67.26-33.65,50.45-50.45l-84.06-84,84.06-84c16.81-16.81-33.64-67.22-50.45-50.42l-84.06,84-84.06-84a11.78,11.78,0,0,0-8.58-3.48Z" transform="translate(-16 -16)" fill="red"/></svg>