<?xml version="1.0" encoding="utf-8"?>
<!-- Generator: Adobe Illustrator 24.3.0, SVG Export Plug-In . SVG Version: 6.00 Build 0)  -->
<svg version="1.1" xmlns="http://www.w3.org/2000/svg" xmlns:xlink="http://www.w3.org/1999/xlink" x="0px" y="0px"
	 viewBox="0 0 512 512" style="enable-background:new 0 0 512 512;" xml:space="preserve">
<style type="text/css">
	.st0{display:none;}
	.st1{fill:#231F20;}
	.st2{fill:#141247;}
	.st3{fill:#82D0D3;}
	.st4{fill:url(#SVGID_1_);stroke:#00FFFF;stroke-width:8;}
	.st5{display:inline;fill:url(#SVGID_2_);stroke:#0300FF;stroke-width:5.4;stroke-miterlimit:3.6;}
	.st6{fill:url(#SVGID_3_);stroke:#FFFFFF;stroke-width:8;}
	.st7{fill:url(#SVGID_4_);}
	.st8{fill:none;stroke:#555555;stroke-width:7;stroke-miterlimit:3.6;}
</style>
<g id="Layer_1" class="st0">
	<polygon class="st1" points="19.4,19.5 19,47.3 286.1,202 227.4,222 285,241.3 142.1,383.5 122.9,364.3 71.4,478.7 194.6,435.2 
		177.1,416.2 328.9,264.4 341.4,307.4 364.3,238.9 421,222.4 363.5,206.9 340.6,127 326.5,175.3 57.8,19.9 19.4,19.5 	"/>
	<path class="st1" d="M370.6,81.9c-4.5,0-9,0.1-13.5,0.3c-3.3,0.1-6.5,0.3-9.8,0.5l31.3,108.8l104,28c6.2-39.1,8.9-80.3,9.2-120.1
		c-35.5-10.7-76.7-17.3-116.7-17.6C373.6,81.9,372.1,81.9,370.6,81.9L370.6,81.9z"/>
	<path class="st1" d="M333.7,84c-32,3.7-61,12.2-83,25.9l64.5,37.3L333.7,84L333.7,84z"/>
	<path class="st1" d="M481.9,224l-103,30.1L340,370.2L319.8,300L280.7,339c18.8,35.4,46.1,62.3,86.2,77.6
		c47.5-17.8,78.6-62.8,98-121.6C472.2,272.9,477.8,248.9,481.9,224L481.9,224z"/>
	<path class="st2" d="M335,366.6l4.9,21.7c3,0.1,6,0.2,9,0.2c0.7,0,1.3,0,2,0l4.4-21C348.5,367.6,341.8,367.3,335,366.6z
		 M340.4,59.8c-0.2,0-0.3,0-0.5,0l-3.4,13.1c2.5-0.1,5-0.2,7.6-0.3L340.4,59.8z M348.4,87.2c-5.3,0.1-10.5,0.3-15.8,0.7l-4,13.8
		c7.6-0.7,15.4-1,23.1-1h0.6L348.4,87.2z M378.6,191.6l-6-20.6c-1.2,9.1-2,17.8-2,23.1c0,7.4,2.5,13.3,7.5,18.5
		c5,5.3,12.8,9.7,23,12.7c20.2,6,49.8,6.1,83.6-2c-3.3,2.7-6.5,5.1-9.9,7.3l33.9-8.3c0-0.2,0.1-0.5,0.2-0.7L378.6,191.6z M335,254.3
		c-18.3,0.9-34.2,3.1-48.7,6.4l26.8,9.7l2.4,10.4c8.8-2.4,19.1-3.8,29.7-4.2v-23.3C341.8,253.5,338.4,253.8,335,254.3z M318.4,293.5
		l5.4,23.5c6.6,0.3,13.9,0.5,21.5,0.6v-27.7C335.3,290.2,325.8,291.4,318.4,293.5z M326.7,330.1l5.2,22.8c4.4,0.5,8.8,0.9,13.3,1.1
		v-23.5C338.8,330.5,332.5,330.4,326.7,330.1z M397.4,237.8c-11.8-3.5-21.6-8.8-28.7-16.2c-7.1-7.4-11.2-17-11.2-27.5
		c0-9.5,1.9-24.1,3.8-36.8c0.6-4.2,1.2-8,1.8-11.4c0.7,0,1.4-0.1,2.1-0.1l-3.7-12.8c-2.8,0.1-5.6,0.2-8.5,0.2
		c-11.6,0-22.8-0.9-33-2.5l-4.9,16.6l-62.7-35c0.2,22.5-10.1,48.1-24.8,69.5l28.2,15.9l-52.1,11.5c-1.7,1.5-3.5,3-5.2,4.4
		c1.1,5.6,2.4,11.2,3.9,16.8l81.6,29.6c19.2-13.5,43.3-20.2,67.4-20.2c16.5,0,32.9,3.1,47.8,9.4l27-6.6
		C415.8,241.9,406.1,240.3,397.4,237.8z M334.6,221.6c-7.1,7.4-16.9,12.7-28.7,16.2c-13,3.9-28.6,5.5-45.9,4.7
		c-16.5-2.4-29.3-9.1-41.7-19.2c34,8.2,63.6,8.1,83.9,2.1c10.2-3,17.9-7.5,23-12.7c5-5.3,7.5-11.2,7.5-18.5c0-7.5-1.8-22.4-3.7-34.8
		c-0.8-5.6-1.6-10.6-2.3-14.6c4.3,0.5,8.8,0.9,13.4,1.1c0.6,3.5,1.2,7.3,1.8,11.6c1.9,12.7,3.8,27.3,3.8,36.8
		C345.7,204.7,341.6,214.2,334.6,221.6z M368.2,254.2c-3.3-0.5-6.6-0.8-10-1v23.3c5.4,0.2,10.7,0.7,15.8,1.4l4.8-23
		C375.3,254.7,371.8,254.4,368.2,254.2z M358.2,289.8v27.7c2.5,0,5.1-0.1,7.6-0.1l5.5-26.6C367.1,290.3,362.7,290,358.2,289.8z
		 M358.2,330.6v23.2l4.9-23.3C361.4,330.5,359.8,330.6,358.2,330.6z"/>
	<polygon class="st3" points="510.2,221.9 508.7,222.3 474.8,230.6 426.5,242.5 399.5,249.1 379,254.1 378.8,254.9 374,278 
		371.3,290.8 365.8,317.5 363,330.5 358.2,353.8 355.3,367.5 350.9,388.5 345.7,413.6 340,388.3 335,366.6 331.9,352.9 326.7,330.1 
		323.7,317 318.4,293.5 315.5,280.8 313.1,270.4 286.4,260.7 284.2,259.9 202.6,230.3 166.9,217.3 203.9,209.2 256,197.6 
		227.8,181.8 33.5,72.5 67.3,8.8 252.5,112.2 315.2,147.2 320.1,130.6 328.6,101.7 332.6,87.9 333.7,84 336.6,72.9 339.9,59.8 
		340.2,58.8 340.4,59.8 344.2,72.6 348.4,87.2 352.3,100.7 361.6,132.9 365.3,145.8 372.6,171 378.6,191.6 508.8,221.6 	"/>
	
		<linearGradient id="SVGID_1_" gradientUnits="userSpaceOnUse" x1="-42.6993" y1="456.164" x2="-41.6993" y2="455.164" gradientTransform="matrix(429.54 0 0 -496 18468.4492 226240)">
		<stop  offset="0" style="stop-color:#48BAFF"/>
		<stop  offset="1" style="stop-color:#073263"/>
	</linearGradient>
	<polygon class="st4" points="556.9,354.7 342.2,478.7 127.4,354.7 127.4,106.7 342.2,-17.3 556.9,106.7 	"/>
	
		<linearGradient id="SVGID_2_" gradientUnits="userSpaceOnUse" x1="-42.8529" y1="455.2455" x2="-41.7594" y2="456.339" gradientTransform="matrix(425.5596 0 0 -413.28 18215.7422 188575.7813)">
		<stop  offset="0" style="stop-color:#FFFFFF"/>
		<stop  offset="1" style="stop-color:#AFFFFF"/>
	</linearGradient>
	<path class="st5" d="M22.3,21.5l-0.4,27.4l262.9,152.3l-57.8,19.6l56.7,19.1l-140.6,140l-18.9-18.9L73.6,473.4l121.2-42.8
		l-17.2-18.6L327,262.5l12.2,42.4l22.6-67.4l55.8-16.3L361,205.9l-22.6-78.6l-13.9,47.5L60.2,21.9L22.3,21.5L22.3,21.5z M368,82.9
		c-4.5,0-8.9,0.1-13.3,0.3c-3.2,0.1-6.4,0.3-9.6,0.5l30.8,107.1l102.4,27.6c6.1-38.5,8.8-79,9-118.2c-34.9-10.6-75.5-17-114.8-17.3
		C371,82.9,369.5,82.9,368,82.9L368,82.9z M331.7,85c-31.5,3.6-60,12-81.7,25.5l63.5,36.7L331.7,85L331.7,85z M477.5,222.8
		l-101.3,29.6l-38.3,114.2l-19.9-69.1l-38.4,38.4c18.5,34.8,45.4,61.3,84.8,76.4c46.7-17.6,77.3-61.8,96.5-119.7
		C468,270.9,473.5,247.3,477.5,222.8L477.5,222.8z"/>
</g>
<g id="Layer_2">
	
		<linearGradient id="SVGID_3_" gradientUnits="userSpaceOnUse" x1="-42.8461" y1="456.1088" x2="-41.8461" y2="455.1088" gradientTransform="matrix(429.54 0 0 -496 18468.4492 226240)">
		<stop  offset="0" style="stop-color:#9F9F9F"/>
		<stop  offset="1" style="stop-color:#2A2A2A"/>
	</linearGradient>
	<polygon class="st6" points="493.9,382.1 279.1,506.1 64.3,382.1 64.3,134.1 279.1,10.1 493.9,134.1 	"/>
	<g>
		
			<image style="overflow:visible;opacity:0.75;" width="498" height="506" xlink:href="E32054B.png"  transform="matrix(1 0 0 1 -24 29)">
		</image>
		<g>
			<linearGradient id="SVGID_4_" gradientUnits="userSpaceOnUse" x1="-11.7354" y1="274.9458" x2="447.1441" y2="274.9458">
				<stop  offset="0" style="stop-color:#FFFFFF"/>
				<stop  offset="1" style="stop-color:#E7E7E7"/>
			</linearGradient>
			<path class="st7" d="M401.9,391.2c-8.6,7.3-24.5,13.9-44.1,18.1c-20.8,4.5-45.6,6.7-69.9,6.6l4.4-21
				c37.5-0.2,74.9-10.8,105.5-31.7L401.9,391.2z M272,394c-24.7-2.3-48.9-9.2-70.6-20.7l-17.5,18.1c4.7,5.8,16.8,12.4,33.8,16.7
				c16.7,4.3,37.6,6.8,59.3,7.5L272,394z M164.7,209.2c-7.1,10.4-15.3,19.8-23.9,27.4L193,225L164.7,209.2z M139.6,257.7
				c4.9,18,12.1,36.1,21.5,53.7l35.2-33.2L139.6,257.7z M210.8,363.5c18,8.9,37.8,14.5,58,16.8l-5.2-22.8
				c-4.5-0.2-12.5-0.7-12.5-0.7l1-13l8.5,0.5l-5.8-27.1L210.8,363.5z M411.8,258c-9.4,6.1-19.5,10.1-31.7,11.9
				c-5.7,0.3-11.3,0.2-16.6,0l-27,6.6c7.7,3.3,15.1,7.4,21.7,12.3l-0.1,0.1c-12.8-3.1-26.7-5.4-42.4-6.6l-4.8,23
				c5.9,0.8,11.5,2,16.5,3.6l-3.8,12.4c-4.4-1.4-9.7-2.4-15.4-3.1l-5.5,26.6c8.3-0.2,16-0.5,22.4-0.9l1,13c-7.5,0.5-16.6,0.9-26.1,1
				l-4.9,23.3v0.4c37.9-0.8,75.5-12.7,104.4-35.8c22.9-30.7,38.5-63.7,46.1-96.2L411.8,258z M391.3,134.3c0.8-2.4,1.2-4.9,1.2-7.5
				c0-7.7-3.9-14.5-9.8-19.5c-5.8-5-13.6-8.7-22.8-11.7c-18.4-5.9-42.9-8.6-69.8-8.6c-4.3,0-8.5,0.1-12.7,0.2l3.7,12.9
				c2.9-0.1,5.9-0.1,8.9-0.1h0c26.1,0,49.6,2.8,65.9,8c8.2,2.6,14.5,5.8,18.3,9.1c3.9,3.3,5.3,6.2,5.3,9.7c0,1.7-0.4,3.5-1.3,5.3
				c-25.6-11.7-57.6-17.5-89.6-17.5c-1.1,0-2.2,0-3.3,0l3.9,13.5c28.5,0.1,56.9,4.7,79.5,14c-3.6,2.5-8.1,5-13.3,7.2
				c-14.5,6.1-34.5,10.3-56.8,11.1l3.7,12.8c3.8-0.2,7.5-0.5,11.2-0.8c-0.6,4-1.5,8.8-2.3,14.3c-0.6,3.8-1.1,7.8-1.6,11.7l6,20.6
				l130.2,30c0.5-2.1,0.9-4.2,1.3-6.3C416.6,220,388,171.7,391.3,134.3z M205.9,117.1c3.8-3.3,10.1-6.5,18.3-9.1
				c12.8-4.1,30-6.7,49.4-7.6l3.4-13.1c-21.7,0.8-41.3,3.5-56.7,8.4c-9.2,2.9-50,16.7-30.7,44c15.2,21.5,62.7,35,62.7,35l4.9-16.6
				c-12.4-2-23.4-5-32.4-8.7c-5.7-2.4-10.5-5.1-14.3-7.9c16.2-6.4,35.2-10.5,55.1-12.3l4-13.8c-24.5,1.8-48.2,7-68.2,15.8
				c-0.6-1.5-0.9-2.9-0.9-4.3C200.6,123.3,202,120.4,205.9,117.1z M300.5,234.3l-22.9-79.8l-14.1,48.3L-11.7,43.8v49.9l234.8,135.7
				l-58.7,19.9l57.6,19.4l-13.9,13.8L167.5,323l-88.4,88l-19.2-19.2L8.4,506.1l123.1-43.5l-17.5-19l86-86l51.9-51.9l14-14l12.4,43.1
				l23-68.5l56.7-16.6L300.5,234.3z"/>
			<path class="st8" d="M401.9,391.2c-8.6,7.3-24.5,13.9-44.1,18.1c-20.8,4.5-45.6,6.7-69.9,6.6l4.4-21
				c37.5-0.2,74.9-10.8,105.5-31.7L401.9,391.2z M272,394c-24.7-2.3-48.9-9.2-70.6-20.7l-17.5,18.1c4.7,5.8,16.8,12.4,33.8,16.7
				c16.7,4.3,37.6,6.8,59.3,7.5L272,394z M164.7,209.2c-7.1,10.4-15.3,19.8-23.9,27.4L193,225L164.7,209.2z M139.6,257.7
				c4.9,18,12.1,36.1,21.5,53.7l35.2-33.2L139.6,257.7z M210.8,363.5c18,8.9,37.8,14.5,58,16.8l-5.2-22.8
				c-4.5-0.2-12.5-0.7-12.5-0.7l1-13l8.5,0.5l-5.8-27.1L210.8,363.5z M411.8,258c-9.4,6.1-19.5,10.1-31.7,11.9
				c-5.7,0.3-11.3,0.2-16.6,0l-27,6.6c7.7,3.3,15.1,7.4,21.7,12.3l-0.1,0.1c-12.8-3.1-26.7-5.4-42.4-6.6l-4.8,23
				c5.9,0.8,11.5,2,16.5,3.6l-3.8,12.4c-4.4-1.4-9.7-2.4-15.4-3.1l-5.5,26.6c8.3-0.2,16-0.5,22.4-0.9l1,13c-7.5,0.5-16.6,0.9-26.1,1
				l-4.9,23.3v0.4c37.9-0.8,75.5-12.7,104.4-35.8c22.9-30.7,38.5-63.7,46.1-96.2L411.8,258z M391.3,134.3c0.8-2.4,1.2-4.9,1.2-7.5
				c0-7.7-3.9-14.5-9.8-19.5c-5.8-5-13.6-8.7-22.8-11.7c-18.4-5.9-42.9-8.6-69.8-8.6c-4.3,0-8.5,0.1-12.7,0.2l3.7,12.9
				c2.9-0.1,5.9-0.1,8.9-0.1h0c26.1,0,49.6,2.8,65.9,8c8.2,2.6,14.5,5.8,18.3,9.1c3.9,3.3,5.3,6.2,5.3,9.7c0,1.7-0.4,3.5-1.3,5.3
				c-25.6-11.7-57.6-17.5-89.6-17.5c-1.1,0-2.2,0-3.3,0l3.9,13.5c28.5,0.1,56.9,4.7,79.5,14c-3.6,2.5-8.1,5-13.3,7.2
				c-14.5,6.1-34.5,10.3-56.8,11.1l3.7,12.8c3.8-0.2,7.5-0.5,11.2-0.8c-0.6,4-1.5,8.8-2.3,14.3c-0.6,3.8-1.1,7.8-1.6,11.7l6,20.6
				l130.2,30c0.5-2.1,0.9-4.2,1.3-6.3C416.6,220,388,171.7,391.3,134.3z M205.9,117.1c3.8-3.3,10.1-6.5,18.3-9.1
				c12.8-4.1,30-6.7,49.4-7.6l3.4-13.1c-21.7,0.8-41.3,3.5-56.7,8.4c-9.2,2.9-50,16.7-30.7,44c15.2,21.5,62.7,35,62.7,35l4.9-16.6
				c-12.4-2-23.4-5-32.4-8.7c-5.7-2.4-10.5-5.1-14.3-7.9c16.2-6.4,35.2-10.5,55.1-12.3l4-13.8c-24.5,1.8-48.2,7-68.2,15.8
				c-0.6-1.5-0.9-2.9-0.9-4.3C200.6,123.3,202,120.4,205.9,117.1z M300.5,234.3l-22.9-79.8l-14.1,48.3L-11.7,43.8v49.9l234.8,135.7
				l-58.7,19.9l57.6,19.4l-13.9,13.8L167.5,323l-88.4,88l-19.2-19.2L8.4,506.1l123.1-43.5l-17.5-19l86-86l51.9-51.9l14-14l12.4,43.1
				l23-68.5l56.7-16.6L300.5,234.3z"/>
		</g>
	</g>
</g>
</svg>
