<svg id="Layer_1" data-name="Layer 1" xmlns="http://www.w3.org/2000/svg" viewBox="0 0 512 512"><defs><style>.cls-1,.cls-2{fill:#fff;}.cls-1{opacity:0.3;}</style></defs><g id="ADEPTS"><path class="cls-1" d="M256,20c-46.91,0-89.89,25.43-121.74,68.12S82.33,190.53,82.33,256.69s20.08,125.87,51.93,168.56S209.09,493.37,256,493.37s89.86-25.43,121.71-68.12,52-102.41,52-168.56-20.11-125.87-52-168.56S302.9,20,256,20Zm93.8,230.83c20.4-.18,40,8.72,49.77,26.14-15.51,51.85-92.77,42.85-108.82,10.25,11.83-24.32,35.93-36.18,59.05-36.39Z"/><path class="cls-2" d="M377.71,424.32C345.86,467,302.9,492.45,256,492.45S166.1,467,134.26,424.32c-30.37-40.7-50-96.9-51.81-159.37,1.67,62.67,21.38,119.06,51.83,159.88,31.85,42.69,74.81,68.1,121.72,68.1s89.87-25.41,121.72-68.1C408.17,384,427.88,327.62,429.55,265,427.78,327.42,408.08,383.62,377.71,424.32Zm52-170.89c0-1.65,0-3.3-.08-4.94q-.19-7.4-.7-14.66c-10.47,9.92-27.83,14.22-45.13,9.83a50.64,50.64,0,0,1-10.53-4.39c21.92.09,41.76-13.2,47.69-34.17A51.7,51.7,0,0,0,423,191.27c-8.39-39.9-24.28-75.45-45.27-103.59C345.87,45,302.9,19.58,256,19.58S166.13,45,134.28,87.69c-30.37,40.7-50.06,96.91-51.83,159.38,0,2-.09,4.05-.11,6.09,0,1,0,2.07,0,3.1,0,.87,0,1.73,0,2.6,0,2,.06,4.06.11,6.09,1.77,62.47,21.44,118.67,51.81,159.37C166.1,467,209.09,492.45,256,492.45S345.86,467,377.71,424.32c30.37-40.7,50.07-96.9,51.84-159.37.05-2,.09-4.05.11-6.09,0-.87,0-1.73,0-2.6S429.67,254.37,429.66,253.43ZM255.79,38.36c0,142.91-.52,287.68-.52,435.87-1.6.07,1.78.12.17.12-41.36,0-79.41-23.22-107.74-62.54s-46.26-94.46-46.26-155.53q0-11.83.89-23.35c10.3,10.56,28.1,15.25,45.83,10.73a50,50,0,0,0,10.48-4.39c-21.82.09-41.57-13.2-47.48-34.17a49.18,49.18,0,0,1-2-17c7.83-33.5,21.23-63.36,38.5-87.34C176,61.43,214.08,38.22,255.44,38.22,257.22,38.22,254,38.28,255.79,38.36Zm71.53,102.75c6.1-7.8,15.39-11.82,25.45-12a46.63,46.63,0,0,1,30.05,10.81,47.1,47.1,0,0,1,7.34,8.05c-18.77-8.51-40.92-4-54.11,12.86-4.87,6.22-8.47,13.13-9.73,20.48C319,167.79,318.66,152.18,327.32,141.11Zm44.94,57c10.69-9.69,6-29.07-15.73-32.2a37.87,37.87,0,0,1,18.82-4.64c15.71.44,29,11.92,27.59,33.12-3.62,54-94.52,18.39-118.42,68.57C275.87,205,342.25,225.28,372.26,198.1ZM278.57,294c19.74,35.05,73.93,71.4,114.24,39.16C367.26,385.26,277.69,366.16,278.57,294Zm12.18-6.81c11.83-24.32,35.93-36.18,59.05-36.39,20.4-.18,40,8.72,49.77,26.14C384.06,328.82,306.8,319.82,290.75,287.22Zm-59.69,0C215,319.82,137.75,328.82,122.23,277c9.75-17.42,29.38-26.32,49.78-26.14C195.12,251,219.23,262.9,231.06,287.22Zm6.88,6.81c.87,72.13-87.47,91.23-112.68,39.16C165,365.43,218.47,329.08,237.94,294ZM234.79,263c-23.57-50.18-113.24-14.54-116.8-68.57-1.4-21.2,11.72-32.68,27.22-33.12a36.9,36.9,0,0,1,18.55,4.64c-21.47,3.13-26.06,22.51-15.51,32.2C177.85,225.28,243.32,205,234.79,263Zm-41.42-81.68c-1.23-7.35-4.79-14.26-9.59-20.48-13-16.86-34.86-21.37-53.38-12.86a47.29,47.29,0,0,1,7.24-8.05c9.05-7.44,19.72-11,29.65-10.81s19.08,4.24,25.1,12C200.93,152.18,200.57,167.79,193.37,181.27Z"/></g></svg>