<svg id="Layer_1" data-name="Layer 1" xmlns="http://www.w3.org/2000/svg" viewBox="0 0 512 512"><defs><style>.cls-1,.cls-2{fill:#fff;}.cls-1{opacity:0.3;}</style></defs><g id="ROVERS"><path class="cls-1" d="M256.46,18.82c-46.91,0-92.76,21.51-124.61,64.21S78.94,189.46,82.79,255.5c5.37,92.21,17.27,63.22,23.82,80.94,10.38,28.06,43.31,57.33,59.24,78.67,31.85,42.69,43.7,77.08,90.61,77.08s64.61-34.39,96.46-77.08c17.25-23.11,44.69-47.32,53.72-78.74C414.29,309.76,424,351,430.13,255.5c4.25-66-20.11-125.87-52-168.56S303.36,18.82,256.45,18.82Zm-135,189.71a13.54,13.54,0,0,1,6.35,1.51c36.77,18.38,55.25,36.57,91.92,55.15,11.61,5.88-17.59,18.39-36.77,18.39-55.15,0-73.54-36.77-73.54-55.16-.26-14.19,5.64-19.72,12-19.89Zm270.09,0c6.4.17,12.3,5.7,12,19.89,0,18.39-18.38,55.16-73.54,55.16-19.17,0-48.37-12.51-36.77-18.39,36.67-18.58,55.16-36.77,91.93-55.15a13.54,13.54,0,0,1,6.35-1.51Zm-208.58,167c55.15,18.39,91.92,18.39,147.08,0-18.39,18.39-36.77,36.77-73.54,36.77s-55.16-18.38-73.54-36.77Z"/><path class="cls-2" d="M256.46,18.14c-49.31,0-84.85,9-110.27,24.12s-41.26,36.37-51.25,63.36c-19.35,52.31-18.08,128.09-7,207,18.77,3.89,117.24,22.65,168.55,22.65S406.32,316,425.09,312.08c8.66-79.68,12.23-154.15-7.12-206.47-10-27-25.83-48.22-51.25-63.35S305.76,18.14,256.46,18.14ZM172.87,63l27,18.65L180.39,99.19l20.91,26.22L172,106.78l-14.21,12.83,47.42,31.44-58-21.93L109,163.61,134,124.14l-15.94-6,9.68-18.38,15.32,10.15,9.7-15.28-17.29-11,16.65-19.84,11.25,14.1Zm201.82,89.57,6.76,12.94c13.75-6.27,25.76-11.65,27.53-12.13l1.62,19-23.27,4.41,10.35,19.8-26.22-16.8L336,186.43s12.56-5.83,26.73-12.35L340.39,159.8Zm-253.28,56a13.54,13.54,0,0,1,6.35,1.51c36.77,18.38,55.25,36.57,91.92,55.15,11.61,5.88-17.59,18.39-36.77,18.39-55.15,0-73.54-36.77-73.54-55.16-.26-14.19,5.64-19.72,12-19.89Zm270.09,0c6.4.17,12.3,5.7,12,19.89,0,18.39-18.38,55.16-73.54,55.16-19.17,0-48.37-12.51-36.77-18.39,36.67-18.58,55.16-36.77,91.93-55.15a13.54,13.54,0,0,1,6.35-1.51Z"/><path class="cls-2" d="M406.64,336.37C368,343.91,299.43,356,256.46,356s-111.14-12-149.85-19.53c21.29,60.86,66.9,107,83.62,123.68,18.38,18.38,32.9,33.74,66.23,33.74s47.75-15.27,66.05-33.57c37.39-43.5,65.9-66.84,84.13-123.92ZM182.92,375.5c55.15,18.39,91.92,18.39,147.08,0-18.39,18.39-36.77,36.77-73.54,36.77s-55.16-18.38-73.54-36.77Z"/></g></svg>