<svg id="Layer_1" data-name="Layer 1" xmlns="http://www.w3.org/2000/svg" viewBox="0 0 512 512"><defs><style>.cls-1,.cls-2{fill:#fff;}.cls-1{opacity:0.3;}</style></defs><g id="SKULKS"><path class="cls-1" d="M256,20c-46.91,0-89.89,25.43-121.74,68.12S82.33,190.53,82.33,256.69s20.08,125.87,51.93,168.56S209.09,493.37,256,493.37s89.86-25.43,121.71-68.12,52-102.41,52-168.56-20.11-125.87-52-168.56S302.9,20,256,20Z"/><path class="cls-2" d="M256,19.25c-49.12,0-93,27.67-124,70.66S82.33,191.47,82.33,256,101.07,379.11,132,422.09s74.85,70.66,124,70.66,93-27.67,124-70.66,49.7-101.56,49.7-166.09S410.93,132.89,380,89.91,305.12,19.25,256,19.25ZM404.55,199a304.8,304.8,0,0,1,.7,111.09c-39.88,12.91-92,20.81-149,20.81-57.28,0-109.53-8.23-149.57-21.31a304.67,304.67,0,0,1,.79-110.56c39.87,14.56,91.88,23.25,148.82,23.25S364.81,213.6,404.56,199Zm-230.5,40.65c-15.93-.16-32.58,3.46-49.84,10.32,15.32,51.42,91.61,42.48,107.47,10.15-17.89-13.82-37.16-20.26-57.63-20.47Zm163.84,0c-20.47.21-39.77,6.65-57.66,20.47,15.86,32.33,92.15,41.27,107.46-10.15C370.44,243.14,353.81,239.52,337.89,239.68Z"/></g></svg>