<?xml version="1.0" encoding="utf-8"?>
<!-- Generator: Adobe Illustrator 24.0.3, SVG Export Plug-In . SVG Version: 6.00 Build 0)  -->
<svg version="1.1" id="Layer_1" xmlns="http://www.w3.org/2000/svg" xmlns:xlink="http://www.w3.org/1999/xlink" x="0px" y="0px"
	 viewBox="0 0 64 64" style="enable-background:new 0 0 64 64;" xml:space="preserve">
<g>
	<g>
		<g transform="matrix(1.1679092,0,0,1.1679092,-274.931,-137.53749)">
			<polygon points="264.7,151.5 263.7,152.1 262.2,153 261.4,153.5 259.6,154.6 253.3,158.4 242.7,151.5 254.2,127.3 258.2,136.6 
				259.9,140.5 262.7,146.9 263.1,147.7 263.1,147.7 			"/>
			<polygon points="271.9,139.4 271.5,149.2 265.4,151.2 263.5,146.9 263.1,146 258.8,136.2 257.8,134 254.7,126.9 255.8,127.7 
				263.4,133.2 267.8,136.4 268.3,136.8 			"/>
			<polygon points="271.3,150.2 264.9,154.8 264.6,154.9 264.2,155.2 262.3,156.6 253.6,162.7 253.6,159 260.2,155 262.1,153.9 
				262.8,153.4 263.9,152.8 265.4,151.8 			"/>
			<path d="M253.6,127L242,151.2l-6.1-2.6l-0.5-9.9L253.6,127z"/>
			<path d="M252.8,158.9v3.8l-17-13.1l5.9,2.3L252.8,158.9z"/>
		</g>
	</g>
	<g>
		<g transform="matrix(1.1679092,0,0,1.1679092,-274.931,-137.53749)">
			<polygon points="283,152.2 271.5,159.1 265.6,155.2 272.2,150.4 272.6,138.9 268.6,136 272.5,128 			"/>
			<path d="M273,127.6l10.6,24.3l6.2-2l0.4-9.8L273,127.6z"/>
			<path d="M271.9,159.7v3.7l17.7-12.5l-5.9,1.7L271.9,159.7z"/>
			<polygon points="271.9,127.7 268.1,135.6 264.1,132.8 			"/>
			<polygon points="265,155.7 271.1,159.6 271.1,163.4 262.9,157.1 			"/>
		</g>
	</g>
</g>
</svg>
