<?xml version="1.0" encoding="utf-8"?>
<!-- Generator: Adobe Illustrator 24.0.3, SVG Export Plug-In . SVG Version: 6.00 Build 0)  -->
<svg version="1.1" id="Layer_1" xmlns="http://www.w3.org/2000/svg" xmlns:xlink="http://www.w3.org/1999/xlink" x="0px" y="0px"
	 viewBox="0 0 64 64" style="enable-background:new 0 0 64 64;" xml:space="preserve">
<g>
	<g transform="matrix(1.1679092,0,0,1.1679092,-274.931,-137.53749)">
		<polygon points="264.7,150.8 263.7,151.4 262.2,152.3 261.4,152.8 259.6,153.8 253.3,157.7 242.7,150.8 254.2,126.6 258.2,135.9 
			259.9,139.8 262.7,146.1 263.1,147 263.1,147 		"/>
		<polygon points="271.9,138.7 271.5,148.5 265.4,150.5 263.5,146.2 263.1,145.3 258.8,135.5 257.8,133.3 254.7,126.2 255.8,127 
			263.4,132.5 267.8,135.7 268.3,136 		"/>
		<polygon points="271.3,149.5 264.9,154.1 264.6,154.2 264.2,154.5 262.3,155.9 253.6,162 253.6,158.2 260.2,154.3 262.1,153.2 
			262.8,152.7 263.9,152 265.4,151.1 		"/>
		<path d="M253.6,126.3L242,150.5l-6.1-2.6l-0.5-9.9L253.6,126.3z"/>
		<path d="M252.8,158.2v3.8l-17-13.1l5.9,2.3L252.8,158.2z"/>
	</g>
</g>
<g>
	<g transform="matrix(1.1679092,0,0,1.1679092,-274.931,-137.53749)">
		<polygon points="283,151.5 271.5,158.4 265.6,154.5 272.2,149.7 272.6,138.2 268.6,135.3 272.5,127.3 		"/>
		<path d="M273,126.9l10.6,24.3l6.2-2l0.4-9.8L273,126.9z"/>
		<path d="M271.9,159v3.7l17.7-12.5l-5.9,1.7L271.9,159z"/>
		<polygon points="271.9,127 268.1,134.9 264.1,132 		"/>
		<polygon points="265,155 271.1,158.9 271.1,162.7 262.9,156.4 		"/>
	</g>
</g>
</svg>
