<?xml version="1.0" encoding="utf-8"?>
<!-- Generator: Adobe Illustrator 24.0.3, SVG Export Plug-In . SVG Version: 6.00 Build 0)  -->
<svg version="1.1" id="Layer_1" xmlns="http://www.w3.org/2000/svg" xmlns:xlink="http://www.w3.org/1999/xlink" x="0px" y="0px"
	 viewBox="0 0 64 64" style="enable-background:new 0 0 64 64;" xml:space="preserve">
<g>
	<path d="M24,43.7l-5.4-16.3l13.7-10.8l14.1,10.8L41.2,44L24,43.7z"/>
	<path d="M7.9,24l0.5,16.3l8.8,12.1l6.3-7.7l-5.8-17.5L7.9,24z"/>
	<path d="M41,45.1L23.9,45l-5.5,7.8l13.9,4.3l14.2-4.5L41,45.1z"/>
	<path d="M8.7,23.5l8.7-11.6l14.3-4.9v8.7L17.8,26.5L8.7,23.5z"/>
	<path d="M33.4,6.9l14.2,4.8l8.3,11.9l-8.7,3.1l-13.9-11L33.4,6.9z"/>
	<path d="M42.2,44.4l5.3-16.3l8.6-3l0,14.6l-8.5,11.9L42.2,44.4z"/>
</g>
</svg>
