<?xml version="1.0" encoding="UTF-8" standalone="no"?>
<svg version="1.1" id="Layer_1" xmlns="http://www.w3.org/2000/svg" xmlns:xlink="http://www.w3.org/1999/xlink" x="0px" y="0px"
   viewBox="0 0 64 64" style="enable-background:new 0 0 64 64;" xml:space="preserve">
<g color="white">
   <path d="M 11.5 9 C 10.149212 8.9609669 8.960847 10.149856 9 11.5 L 9 51.195312 C 8.7783001 52.934174 9.4649439 55.027114 11.5 55.199219 L 51.195312 55.199219 C 52.934562 55.433915 55.164599 54.729057 55.099609 52.599609 L 55.099609 12.90625 C 55.334305 11.167 54.629448 8.935012 52.5 9 L 11.5 9 z M 22.671875 13.931641 A 4.3972788 4.3972788 0 0 1 22.705078 13.931641 A 4.3972788 4.3972788 0 0 1 27.101562 18.330078 A 4.3972788 4.3972788 0 0 1 22.705078 22.726562 A 4.3972788 4.3972788 0 0 1 18.306641 18.330078 A 4.3972788 4.3972788 0 0 1 22.671875 13.931641 z M 41.367188 13.931641 A 4.3972788 4.3972788 0 0 1 41.398438 13.931641 A 4.3972788 4.3972788 0 0 1 45.796875 18.330078 A 4.3972788 4.3972788 0 0 1 41.398438 22.726562 A 4.3972788 4.3972788 0 0 1 37.001953 18.330078 A 4.3972788 4.3972788 0 0 1 41.367188 13.931641 z M 22.671875 27.732422 A 4.3972788 4.3972788 0 0 1 22.705078 27.732422 A 4.3972788 4.3972788 0 0 1 27.101562 32.130859 A 4.3972788 4.3972788 0 0 1 22.705078 36.527344 A 4.3972788 4.3972788 0 0 1 18.306641 32.130859 A 4.3972788 4.3972788 0 0 1 22.671875 27.732422 z M 41.367188 27.732422 A 4.3972788 4.3972788 0 0 1 41.398438 27.732422 A 4.3972788 4.3972788 0 0 1 45.796875 32.130859 A 4.3972788 4.3972788 0 0 1 41.398438 36.527344 A 4.3972788 4.3972788 0 0 1 37.001953 32.130859 A 4.3972788 4.3972788 0 0 1 41.367188 27.732422 z M 22.671875 41.751953 A 4.3972788 4.3972788 0 0 1 22.705078 41.751953 A 4.3972788 4.3972788 0 0 1 27.101562 46.150391 A 4.3972788 4.3972788 0 0 1 22.705078 50.546875 A 4.3972788 4.3972788 0 0 1 18.306641 46.150391 A 4.3972788 4.3972788 0 0 1 22.671875 41.751953 z M 41.398438 41.751953 A 4.3972788 -4.3972788 0 0 1 45.796875 46.150391 A 4.3972788 -4.3972788 0 0 1 41.398438 50.546875 A 4.3972788 -4.3972788 0 0 1 37.001953 46.150391 A 4.3972788 -4.3972788 0 0 1 41.398438 41.751953 z " fill="currentcolor"/>
</g>
</svg>
