<svg xmlns="http://www.w3.org/2000/svg" viewBox="0 0 512 512" style="height: 400px; width: 400px;"><defs><clipPath id="icon-bg"><polygon points="460.38,374,256,492,51.62,374,51.62,138,256,20,460.38,138" fill="url(#lorc-ent-mouth-gradient-0)" stroke="#ffffff" stroke-opacity="1" stroke-width="20"></polygon></clipPath><filter id="shadow-1" height="300%" width="300%" x="-100%" y="-100%"><feFlood flood-color="rgba(0, 0, 0, 1)" result="flood"></feFlood><feComposite in="flood" in2="SourceGraphic" operator="atop" result="composite"></feComposite><feGaussianBlur in="composite" stdDeviation="5" result="blur"></feGaussianBlur><feOffset dx="5" dy="5" result="offset"></feOffset><feComposite in="SourceGraphic" in2="offset" operator="over"></feComposite></filter><linearGradient x1="0" x2="1" y1="0" y2="1" id="lorc-ent-mouth-gradient-0"><stop offset="0%" stop-color="#ff0000" stop-opacity="1"></stop><stop offset="100%" stop-color="#220000" stop-opacity="1"></stop></linearGradient></defs><polygon points="460.38,374,256,492,51.62,374,51.62,138,256,20,460.38,138" fill="url(#lorc-ent-mouth-gradient-0)" stroke="#ffffff" stroke-opacity="1" stroke-width="20"></polygon><g class="" transform="translate(9,4)" style=""><path d="M17.873 17.254v476.558h176.373L315.14 355.4l-137.83 63.075 70.667-108.043-31.43 16.517c13.426-76.567 48.536-132.702 102.05-197.208l-11.85 112.803 71.17-140.2-6.72 151.587L470.27 77.254c12.35-17.27 20.207-38 24.748-60H17.873zm216.71 55.97L213.02 179.57l73.123-103.343-21.637 93.414c-35.604 51.076-59.427 102.66-68.56 168.135l-62.436 32.81 63.072-89.355-117.97 56.065-37.962-65.992c10.632-76.265 43.808-139.937 99.284-191.56l94.648-6.518z" fill="#fff" fill-opacity="1" clip-path="url(#icon-bg)" filter="url(#shadow-1)"></path></g></svg>