<?xml version="1.0" encoding="utf-8"?>
<!-- Generator: Adobe Illustrator 24.3.0, SVG Export Plug-In . SVG Version: 6.00 Build 0)  -->
<svg version="1.1" xmlns="http://www.w3.org/2000/svg" xmlns:xlink="http://www.w3.org/1999/xlink" x="0px" y="0px"
	 viewBox="0 0 512 512" enable-background="new 0 0 512 512" xml:space="preserve">
<ellipse id="base" fill="#F2AF06" cx="256" cy="256" rx="216.9" ry="256"/>
<linearGradient id="shimmer_1_" gradientUnits="userSpaceOnUse" x1="-745.165" y1="-272.2336" x2="-744.0752" y2="-271.2672" gradientTransform="matrix(421.13 0 0 474.88 313835.1563 129300.7969)">
	<stop  offset="0" style="stop-color:#FFEABB"/>
	<stop  offset="1" style="stop-color:#FED838"/>
</linearGradient>
<path id="shimmer" fill="url(#shimmer_1_)" d="M287.8,10.9c-26.6,0-52,7.4-74.9,21L453.6,249c0.1,2.6,0.1,5.1,0.1,7.8
	c0,49.7-12.1,95.6-32.3,132.5L130.7,127c18.8-39.4,49.9-75.2,82.2-95.1l-4.9-4h-23.6c-29.5,23.7-53.3,53.7-69.6,87.8h3.1l12.7,11.4
	c-5.2,11.1-9.6,22.4-13.3,34.1l285.2,257.3c-7.9,10.2-16.8,19.6-26.6,27.9L107.1,203.9c2.4-15.2,6.6-30.2,10.1-42.9l-4.7-4.2h-14
	c-3.9,12.5-7,25.2-9.4,38.1h7.9l10.1,9.1c-1.2,7.2-2.1,14.5-2.8,22L361,457.5c-10.3,6.8-21.5,12.3-33.2,16.1L103.5,271.3
	c3.1,61.6,23.5,116.8,54.6,157.3c33.7,44,79.5,70.6,129.8,70.6c7,0,14-0.5,21-1.6l0.5-0.1l1-0.2c43.1-6.4,81.4-32.5,109.8-70.5
	c32.8-43.9,52.8-104,52.8-170.1c0-17.2-1.4-34.4-4.1-51.4c-0.1-0.8-0.3-1.7-0.4-2.5c-7.8-47-25.8-89-50.7-121.4
	C383.9,37.4,338.1,10.9,287.8,10.9z M209.6,11.7c-18.3,2-36.1,7.5-52.4,16.1h27.5C192.5,21.8,200.9,16.4,209.6,11.7L209.6,11.7z
	 M73.2,115.6c-7,13.3-12.9,27.2-17.7,41.5h42.9c4.4-14.2,9.8-28.1,16.3-41.5H73.2z M45.6,194.7c-2,10.2-3.4,20.5-4.3,30.8h43.8
	c0.9-10.5,2.3-20.8,4.1-30.8H45.6z M85.2,225.8c-1.1,12.2-1.1,22.3-1.4,33.2H40c0.8,66.5,21.9,126.3,54.9,169.5
	c30.3,39.6,70.4,65,114.7,69.7c-25.4-13.6-48.1-33.5-66.8-58c-36-46.9-58.1-110.7-58.9-181.1h5.8l13.7,12
	c-1.7-13.8-0.1-31.5,1.1-44.7l-0.7-0.6L85.2,225.8L85.2,225.8z"/>
</svg>
