<svg id="COINS" xmlns="http://www.w3.org/2000/svg" viewBox="0 0 472.01 498"><g id="coins-10-hover"><ellipse cx="236.11" cy="249" rx="235.9" ry="249" fill="#fdd470"/><path d="M283.12,17.59a192,192,0,0,0-86,20.38L473.37,249.15c.07,2.51.14,5,.14,7.57,0,48.37-13.88,93-37,128.9L102.73,130.5C124.3,92.13,160,57.33,197.1,38l-5.61-3.91H164.35C132.92,55.23,104,84.79,84.51,119.44l3.51,0,14.56,11.12a249.33,249.33,0,0,0-15.23,33.13L414.74,414a196.16,196.16,0,0,1-30.54,27.15L75.74,205.35c2.8-14.76,7.54-29.4,11.54-41.72L81.9,159.5H65.85a272.07,272.07,0,0,0-10.76,37.09h9.07l11.54,8.85c-1.34,7-2.44,14.14-3.21,21.37L367.06,452a170.07,170.07,0,0,1-38.13,15.65L71.5,270.87c3.54,59.87,27,113.58,62.61,153,38.74,42.84,91.29,68.63,149,68.63a190.09,190.09,0,0,0,24.08-1.54l.59-.06,1.18-.15c49.45-6.2,93.49-31.58,126-68.54,37.64-42.74,60.55-101.14,60.55-165.46a263.47,263.47,0,0,0-4.76-50c-.16-.82-.31-1.63-.48-2.44-8.93-45.76-29.65-86.53-58.19-118.1-38.73-42.83-91.28-68.62-149-68.62Zm-89.79.82c-22.92,6.84-22.15,7.27-41.09,15.62h12.41a226.53,226.53,0,0,1,28.68-15.62Zm-131.68,101a247,247,0,0,0-20.28,40.37h24.3A265.46,265.46,0,0,1,84.4,119.41Zm-31.6,77a259.24,259.24,0,0,0-5,30H50.4a280.19,280.19,0,0,1,4.69-30Zm20.5,30.19C49.27,238.49,49.28,248.35,49,259H23.56c.94,64.64,25.09,122.89,63.06,164.87,34.8,38.5,61.88,54.9,106.71,67.81a234.08,234.08,0,0,1-76.73-56.43C75.37,389.62,50,327.53,49,259h6.64l15.71,11.69c-2-13.47-.14-30.62,1.29-43.5l-.77-.6H50.55Z" transform="translate(-23.56 -7)" fill="#fff"/></g></svg>