<svg style="height: 512px; width: 512px;" xmlns="http://www.w3.org/2000/svg" viewBox="0 0 512 512"><defs><linearGradient x1="0" x2="1" y1="0" y2="1" id="lorc-stopwatch-gradient-0"><stop offset="0%" stop-color="#50e3c2" stop-opacity="1"></stop><stop offset="100%" stop-color="#4a90e2" stop-opacity="1"></stop></linearGradient></defs><polygon points="492.51,353.97,353.97,492.51,158.03,492.51,19.49,353.97,19.49,158.03,158.03,19.49,353.97,19.49,492.51,158.03" fill="url(#lorc-stopwatch-gradient-0)"></polygon><g class="" style="" transform="translate(0,-32)"><g><path d="M179.594 20.688L179.594 62.094L322.844 62.094L322.844 20.687L179.594 20.687Z" class="" fill="#ffffff" fill-opacity="0"></path><path d="M256.03 82C143.04 82 51.25 173.727 51.25 286.656C51.25 399.586 143.038 491.312 256.03 491.312C369.024 491.312 460.78 399.584 460.78 286.656C460.78 173.73 369.025 82 256.03 82Z" class="" fill="#ffffff" fill-opacity="0"></path><path d="M256.03 117.625C349.45 117.625 425.156 193.29 425.156 286.655C425.156 380.023 349.45 456.219 256.031 456.219C162.614 456.219 86.876 380.022 86.876 286.655C86.876 193.289 162.612 117.625 256.032 117.625Z" class="selected" fill="#82ffe3" fill-opacity="1" stroke="#0000ff" stroke-opacity="1" stroke-width="20"></path><path d="M332.22 137.905L259.75 245.405C270.42 246.441 280.266 251.45 287.375 259.219L332.219 137.905Z" class="" fill="#0000ff" fill-opacity="1"></path><path d="M246.687 138.969L246.687 184.279C249.764 184.004 252.883 183.874 256.031 183.874C259.186 183.874 262.294 184.004 265.376 184.28L265.376 138.97L246.688 138.97Z" class="" fill="#0000ff" fill-opacity="1"></path><path d="M158.157 175.624L144.937 188.844L177 220.874C180.992 216.09 185.432 211.676 190.22 207.686L158.156 175.624Z" class="" fill="#0000ff" fill-opacity="1"></path><path d="M353.907 175.624L321.844 207.687C326.63 211.677 331.04 216.09 335.031 220.874L367.095 188.844L353.907 175.624Z" class="" fill="#0000ff" fill-opacity="1"></path><path d="M255.563 256.844C253.483 256.854 251.368 257.087 249.25 257.53C232.302 261.074 221.55 277.535 225.094 294.47C228.638 311.402 245.114 322.168 262.064 318.625C279.01 315.082 289.764 298.621 286.219 281.687C283.117 266.871 270.115 256.762 255.561 256.844Z" class="" fill="#0000ff" fill-opacity="1"></path><path d="M108.28 277.31L108.28 296L153.594 296C153.316 292.92 153.188 289.808 153.188 286.656C153.188 283.51 153.318 280.386 153.594 277.312L108.28 277.312Z" class="" fill="#0000ff" fill-opacity="1"></path><path d="M358.437 277.31C358.714 280.385 358.875 283.507 358.875 286.654C358.875 289.807 358.715 292.918 358.437 295.998L403.781 295.998L403.781 277.31L358.44 277.31Z" class="" fill="#0000ff" fill-opacity="1"></path><path d="M298.375 284.03C299.368 294.552 296.407 304.772 290.562 312.967L414.562 332.059L298.375 284.029Z" class="" fill="#0000ff" fill-opacity="1"></path><path d="M176.97 352.405L144.938 384.435L158.156 397.655L190.219 365.625C185.421 361.625 180.966 357.201 176.969 352.405Z" class="" fill="#0000ff" fill-opacity="1"></path><path d="M335.063 352.405C331.063 357.201 326.64 361.625 321.843 365.625L353.906 397.655L367.094 384.435L335.064 352.405Z" class="" fill="#0000ff" fill-opacity="1"></path><path d="M246.688 389L246.688 434.313L265.375 434.313L265.375 389C262.293 389.278 259.185 389.438 256.031 389.438C252.884 389.438 249.765 389.278 246.689 389Z" class="" fill="#0000ff" fill-opacity="1"></path></g></g></svg>